<mxfile host="app.diagrams.net" modified="2022-11-05T04:01:31.809Z" agent="5.0 (Windows NT 10.0; Win64; x64) AppleWebKit/537.36 (KHTML, like Gecko) Chrome/107.0.0.0 Safari/537.36 Edg/107.0.1418.26" etag="0_oBGhZffn9sgvdCeElD" version="20.5.1" type="github" pages="4">
  <diagram id="CMqO4D6JdmUN9mWRwVo_" name="concrete">
    <mxGraphModel dx="1102" dy="674" grid="1" gridSize="10" guides="1" tooltips="1" connect="1" arrows="1" fold="1" page="1" pageScale="1" pageWidth="827" pageHeight="1169" math="1" shadow="0">
      <root>
        <mxCell id="0" />
        <mxCell id="1" parent="0" />
        <mxCell id="nRQ4kLELZCcuz9k8h1SY-1" value="$$\varnothing$$" style="text;html=1;strokeColor=none;fillColor=none;align=center;verticalAlign=middle;whiteSpace=wrap;rounded=0;" parent="1" vertex="1">
          <mxGeometry x="320" y="450" width="20" height="20" as="geometry" />
        </mxCell>
        <mxCell id="nRQ4kLELZCcuz9k8h1SY-2" value="{0}" style="text;html=1;strokeColor=none;fillColor=none;align=center;verticalAlign=middle;whiteSpace=wrap;rounded=0;" parent="1" vertex="1">
          <mxGeometry x="280" y="420" width="30" height="20" as="geometry" />
        </mxCell>
        <mxCell id="nRQ4kLELZCcuz9k8h1SY-3" value="{1}" style="text;html=1;strokeColor=none;fillColor=none;align=center;verticalAlign=middle;whiteSpace=wrap;rounded=0;" parent="1" vertex="1">
          <mxGeometry x="315" y="420" width="30" height="20" as="geometry" />
        </mxCell>
        <mxCell id="nRQ4kLELZCcuz9k8h1SY-4" value="{2}" style="text;html=1;strokeColor=none;fillColor=none;align=center;verticalAlign=middle;whiteSpace=wrap;rounded=0;" parent="1" vertex="1">
          <mxGeometry x="350" y="420" width="30" height="20" as="geometry" />
        </mxCell>
        <mxCell id="nRQ4kLELZCcuz9k8h1SY-7" value="{0, 1}" style="text;html=1;strokeColor=none;fillColor=none;align=center;verticalAlign=middle;whiteSpace=wrap;rounded=0;" parent="1" vertex="1">
          <mxGeometry x="260" y="390" width="40" height="20" as="geometry" />
        </mxCell>
        <mxCell id="nRQ4kLELZCcuz9k8h1SY-8" value="{1, 2}" style="text;html=1;strokeColor=none;fillColor=none;align=center;verticalAlign=middle;whiteSpace=wrap;rounded=0;" parent="1" vertex="1">
          <mxGeometry x="360" y="390" width="40" height="20" as="geometry" />
        </mxCell>
        <mxCell id="nRQ4kLELZCcuz9k8h1SY-9" value="{0, 2}" style="text;html=1;strokeColor=none;fillColor=none;align=center;verticalAlign=middle;whiteSpace=wrap;rounded=0;" parent="1" vertex="1">
          <mxGeometry x="310" y="390" width="40" height="20" as="geometry" />
        </mxCell>
        <mxCell id="nRQ4kLELZCcuz9k8h1SY-12" value="" style="endArrow=none;html=1;rounded=0;exitX=0.5;exitY=0;exitDx=0;exitDy=0;entryX=0.5;entryY=1;entryDx=0;entryDy=0;" parent="1" source="nRQ4kLELZCcuz9k8h1SY-1" target="nRQ4kLELZCcuz9k8h1SY-2" edge="1">
          <mxGeometry width="50" height="50" relative="1" as="geometry">
            <mxPoint x="360" y="390" as="sourcePoint" />
            <mxPoint x="410" y="340" as="targetPoint" />
          </mxGeometry>
        </mxCell>
        <mxCell id="nRQ4kLELZCcuz9k8h1SY-14" value="" style="endArrow=none;html=1;rounded=0;exitX=0.5;exitY=0;exitDx=0;exitDy=0;entryX=0.5;entryY=1;entryDx=0;entryDy=0;" parent="1" source="nRQ4kLELZCcuz9k8h1SY-1" target="nRQ4kLELZCcuz9k8h1SY-3" edge="1">
          <mxGeometry width="50" height="50" relative="1" as="geometry">
            <mxPoint x="340" y="460" as="sourcePoint" />
            <mxPoint x="305" y="450" as="targetPoint" />
          </mxGeometry>
        </mxCell>
        <mxCell id="nRQ4kLELZCcuz9k8h1SY-15" value="" style="endArrow=none;html=1;rounded=0;exitX=0.5;exitY=0;exitDx=0;exitDy=0;entryX=0.5;entryY=1;entryDx=0;entryDy=0;" parent="1" source="nRQ4kLELZCcuz9k8h1SY-1" target="nRQ4kLELZCcuz9k8h1SY-4" edge="1">
          <mxGeometry width="50" height="50" relative="1" as="geometry">
            <mxPoint x="340" y="460" as="sourcePoint" />
            <mxPoint x="340" y="450" as="targetPoint" />
          </mxGeometry>
        </mxCell>
        <mxCell id="nRQ4kLELZCcuz9k8h1SY-17" value="" style="endArrow=none;html=1;rounded=0;exitX=0.5;exitY=1;exitDx=0;exitDy=0;entryX=0.5;entryY=0;entryDx=0;entryDy=0;" parent="1" source="nRQ4kLELZCcuz9k8h1SY-7" target="nRQ4kLELZCcuz9k8h1SY-2" edge="1">
          <mxGeometry width="50" height="50" relative="1" as="geometry">
            <mxPoint x="340" y="460" as="sourcePoint" />
            <mxPoint x="305" y="450" as="targetPoint" />
          </mxGeometry>
        </mxCell>
        <mxCell id="nRQ4kLELZCcuz9k8h1SY-18" value="" style="endArrow=none;html=1;rounded=0;exitX=0.5;exitY=1;exitDx=0;exitDy=0;entryX=0.5;entryY=0;entryDx=0;entryDy=0;" parent="1" source="nRQ4kLELZCcuz9k8h1SY-7" target="nRQ4kLELZCcuz9k8h1SY-3" edge="1">
          <mxGeometry width="50" height="50" relative="1" as="geometry">
            <mxPoint x="290" y="420" as="sourcePoint" />
            <mxPoint x="305" y="430" as="targetPoint" />
          </mxGeometry>
        </mxCell>
        <mxCell id="nRQ4kLELZCcuz9k8h1SY-20" value="" style="endArrow=none;html=1;rounded=0;exitX=0.5;exitY=1;exitDx=0;exitDy=0;entryX=0.5;entryY=0;entryDx=0;entryDy=0;" parent="1" source="nRQ4kLELZCcuz9k8h1SY-9" target="nRQ4kLELZCcuz9k8h1SY-2" edge="1">
          <mxGeometry width="50" height="50" relative="1" as="geometry">
            <mxPoint x="290" y="420" as="sourcePoint" />
            <mxPoint x="340" y="430" as="targetPoint" />
          </mxGeometry>
        </mxCell>
        <mxCell id="nRQ4kLELZCcuz9k8h1SY-21" value="" style="endArrow=none;html=1;rounded=0;exitX=0.5;exitY=1;exitDx=0;exitDy=0;entryX=0.5;entryY=0;entryDx=0;entryDy=0;" parent="1" source="nRQ4kLELZCcuz9k8h1SY-9" target="nRQ4kLELZCcuz9k8h1SY-4" edge="1">
          <mxGeometry width="50" height="50" relative="1" as="geometry">
            <mxPoint x="340.0000000000001" y="420" as="sourcePoint" />
            <mxPoint x="305" y="430" as="targetPoint" />
          </mxGeometry>
        </mxCell>
        <mxCell id="nRQ4kLELZCcuz9k8h1SY-22" value="" style="endArrow=none;html=1;rounded=0;exitX=0.5;exitY=1;exitDx=0;exitDy=0;entryX=0.5;entryY=0;entryDx=0;entryDy=0;" parent="1" source="nRQ4kLELZCcuz9k8h1SY-8" target="nRQ4kLELZCcuz9k8h1SY-3" edge="1">
          <mxGeometry width="50" height="50" relative="1" as="geometry">
            <mxPoint x="290" y="420" as="sourcePoint" />
            <mxPoint x="340" y="430" as="targetPoint" />
          </mxGeometry>
        </mxCell>
        <mxCell id="nRQ4kLELZCcuz9k8h1SY-23" value="" style="endArrow=none;html=1;rounded=0;exitX=0.5;exitY=1;exitDx=0;exitDy=0;entryX=0.5;entryY=0;entryDx=0;entryDy=0;" parent="1" source="nRQ4kLELZCcuz9k8h1SY-8" target="nRQ4kLELZCcuz9k8h1SY-4" edge="1">
          <mxGeometry width="50" height="50" relative="1" as="geometry">
            <mxPoint x="390" y="420" as="sourcePoint" />
            <mxPoint x="340" y="430" as="targetPoint" />
          </mxGeometry>
        </mxCell>
        <mxCell id="nRQ4kLELZCcuz9k8h1SY-24" value="{0, 1, 2}" style="text;html=1;strokeColor=none;fillColor=none;align=center;verticalAlign=middle;whiteSpace=wrap;rounded=0;" parent="1" vertex="1">
          <mxGeometry x="305" y="360" width="50" height="20" as="geometry" />
        </mxCell>
        <mxCell id="nRQ4kLELZCcuz9k8h1SY-25" value="" style="endArrow=none;html=1;rounded=0;exitX=0.5;exitY=0;exitDx=0;exitDy=0;entryX=0.5;entryY=1;entryDx=0;entryDy=0;" parent="1" source="nRQ4kLELZCcuz9k8h1SY-7" target="nRQ4kLELZCcuz9k8h1SY-24" edge="1">
          <mxGeometry width="50" height="50" relative="1" as="geometry">
            <mxPoint x="290" y="420" as="sourcePoint" />
            <mxPoint x="340" y="430" as="targetPoint" />
          </mxGeometry>
        </mxCell>
        <mxCell id="nRQ4kLELZCcuz9k8h1SY-26" value="" style="endArrow=none;html=1;rounded=0;exitX=0.5;exitY=0;exitDx=0;exitDy=0;entryX=0.5;entryY=1;entryDx=0;entryDy=0;" parent="1" source="nRQ4kLELZCcuz9k8h1SY-9" target="nRQ4kLELZCcuz9k8h1SY-24" edge="1">
          <mxGeometry width="50" height="50" relative="1" as="geometry">
            <mxPoint x="290" y="400" as="sourcePoint" />
            <mxPoint x="340.0000000000001" y="390" as="targetPoint" />
          </mxGeometry>
        </mxCell>
        <mxCell id="nRQ4kLELZCcuz9k8h1SY-27" value="" style="endArrow=none;html=1;rounded=0;exitX=0.5;exitY=0;exitDx=0;exitDy=0;entryX=0.5;entryY=1;entryDx=0;entryDy=0;" parent="1" source="nRQ4kLELZCcuz9k8h1SY-8" target="nRQ4kLELZCcuz9k8h1SY-24" edge="1">
          <mxGeometry width="50" height="50" relative="1" as="geometry">
            <mxPoint x="300" y="410" as="sourcePoint" />
            <mxPoint x="350.0000000000001" y="400" as="targetPoint" />
          </mxGeometry>
        </mxCell>
      </root>
    </mxGraphModel>
  </diagram>
  <diagram id="r2tNLuf14iYwM6FzeMzO" name="galois">
    <mxGraphModel dx="1102" dy="674" grid="1" gridSize="10" guides="1" tooltips="1" connect="1" arrows="1" fold="1" page="1" pageScale="1" pageWidth="827" pageHeight="1169" math="1" shadow="0">
      <root>
        <mxCell id="0" />
        <mxCell id="1" parent="0" />
        <mxCell id="VQBSdqZlEqTd4YCsf0qd-1" value="" style="ellipse;whiteSpace=wrap;html=1;" parent="1" vertex="1">
          <mxGeometry x="180" y="230" width="60" height="160" as="geometry" />
        </mxCell>
        <mxCell id="VQBSdqZlEqTd4YCsf0qd-2" value="$$\gamma(a)$$" style="text;html=1;strokeColor=none;fillColor=none;align=center;verticalAlign=middle;whiteSpace=wrap;rounded=0;" parent="1" vertex="1">
          <mxGeometry x="195" y="250" width="30" height="30" as="geometry" />
        </mxCell>
        <mxCell id="VQBSdqZlEqTd4YCsf0qd-3" value="$$c$$" style="text;html=1;strokeColor=none;fillColor=none;align=center;verticalAlign=middle;whiteSpace=wrap;rounded=0;" parent="1" vertex="1">
          <mxGeometry x="205" y="330" width="10" height="30" as="geometry" />
        </mxCell>
        <mxCell id="VQBSdqZlEqTd4YCsf0qd-4" value="$$\mathbb{C}$$" style="text;html=1;strokeColor=none;fillColor=none;align=center;verticalAlign=middle;whiteSpace=wrap;rounded=0;" parent="1" vertex="1">
          <mxGeometry x="180" y="200" width="60" height="30" as="geometry" />
        </mxCell>
        <mxCell id="VQBSdqZlEqTd4YCsf0qd-5" value="" style="ellipse;whiteSpace=wrap;html=1;" parent="1" vertex="1">
          <mxGeometry x="340" y="230" width="60" height="160" as="geometry" />
        </mxCell>
        <mxCell id="VQBSdqZlEqTd4YCsf0qd-6" value="$$a$$" style="text;html=1;strokeColor=none;fillColor=none;align=center;verticalAlign=middle;whiteSpace=wrap;rounded=0;" parent="1" vertex="1">
          <mxGeometry x="362" y="250" width="20" height="30" as="geometry" />
        </mxCell>
        <mxCell id="VQBSdqZlEqTd4YCsf0qd-7" value="$$\alpha(c)$$" style="text;html=1;strokeColor=none;fillColor=none;align=center;verticalAlign=middle;whiteSpace=wrap;rounded=0;" parent="1" vertex="1">
          <mxGeometry x="357" y="330" width="30" height="30" as="geometry" />
        </mxCell>
        <mxCell id="VQBSdqZlEqTd4YCsf0qd-8" value="$$\mathbb{A}$$" style="text;html=1;strokeColor=none;fillColor=none;align=center;verticalAlign=middle;whiteSpace=wrap;rounded=0;" parent="1" vertex="1">
          <mxGeometry x="340" y="200" width="60" height="30" as="geometry" />
        </mxCell>
        <mxCell id="VQBSdqZlEqTd4YCsf0qd-11" value="" style="endArrow=classic;html=1;rounded=0;entryX=1;entryY=0.5;entryDx=0;entryDy=0;exitX=0;exitY=0.5;exitDx=0;exitDy=0;fillColor=#dae8fc;strokeColor=#6c8ebf;" parent="1" source="VQBSdqZlEqTd4YCsf0qd-6" target="VQBSdqZlEqTd4YCsf0qd-2" edge="1">
          <mxGeometry width="50" height="50" relative="1" as="geometry">
            <mxPoint x="270" y="330" as="sourcePoint" />
            <mxPoint x="320" y="280" as="targetPoint" />
          </mxGeometry>
        </mxCell>
        <mxCell id="VQBSdqZlEqTd4YCsf0qd-12" value="" style="endArrow=classic;html=1;rounded=0;entryX=0;entryY=0.5;entryDx=0;entryDy=0;exitX=1;exitY=0.5;exitDx=0;exitDy=0;fillColor=#f8cecc;strokeColor=#b85450;" parent="1" source="VQBSdqZlEqTd4YCsf0qd-3" target="VQBSdqZlEqTd4YCsf0qd-7" edge="1">
          <mxGeometry width="50" height="50" relative="1" as="geometry">
            <mxPoint x="235" y="275" as="sourcePoint" />
            <mxPoint x="372" y="275" as="targetPoint" />
          </mxGeometry>
        </mxCell>
        <mxCell id="VQBSdqZlEqTd4YCsf0qd-13" value="$$\gamma$$" style="text;html=1;strokeColor=none;fillColor=none;align=center;verticalAlign=middle;whiteSpace=wrap;rounded=0;" parent="1" vertex="1">
          <mxGeometry x="280" y="240" width="30" height="30" as="geometry" />
        </mxCell>
        <mxCell id="VQBSdqZlEqTd4YCsf0qd-14" value="$$\alpha$$" style="text;html=1;strokeColor=none;fillColor=none;align=center;verticalAlign=middle;whiteSpace=wrap;rounded=0;" parent="1" vertex="1">
          <mxGeometry x="280" y="320" width="30" height="30" as="geometry" />
        </mxCell>
        <mxCell id="3_7W1aBH6Cnfpdq8qSuT-1" value="" style="endArrow=none;html=1;rounded=0;entryX=0.5;entryY=1;entryDx=0;entryDy=0;exitX=0.5;exitY=0;exitDx=0;exitDy=0;" parent="1" source="VQBSdqZlEqTd4YCsf0qd-3" target="VQBSdqZlEqTd4YCsf0qd-2" edge="1">
          <mxGeometry width="50" height="50" relative="1" as="geometry">
            <mxPoint x="240" y="330" as="sourcePoint" />
            <mxPoint x="290" y="280" as="targetPoint" />
          </mxGeometry>
        </mxCell>
        <mxCell id="3_7W1aBH6Cnfpdq8qSuT-2" value="" style="endArrow=none;html=1;rounded=0;exitX=0.5;exitY=0;exitDx=0;exitDy=0;" parent="1" source="VQBSdqZlEqTd4YCsf0qd-7" edge="1">
          <mxGeometry width="50" height="50" relative="1" as="geometry">
            <mxPoint x="370" y="330" as="sourcePoint" />
            <mxPoint x="372" y="280" as="targetPoint" />
          </mxGeometry>
        </mxCell>
        <mxCell id="3_7W1aBH6Cnfpdq8qSuT-3" value="$$\subseteq$$" style="text;html=1;strokeColor=none;fillColor=none;align=center;verticalAlign=middle;whiteSpace=wrap;rounded=0;rotation=-90;" parent="1" vertex="1">
          <mxGeometry x="180" y="290" width="30" height="30" as="geometry" />
        </mxCell>
        <mxCell id="3_7W1aBH6Cnfpdq8qSuT-4" value="$$\sqsubseteq$$" style="text;html=1;strokeColor=none;fillColor=none;align=center;verticalAlign=middle;whiteSpace=wrap;rounded=0;rotation=-90;" parent="1" vertex="1">
          <mxGeometry x="340" y="290" width="30" height="30" as="geometry" />
        </mxCell>
        <mxCell id="3_7W1aBH6Cnfpdq8qSuT-5" value="$$\Leftrightarrow$$" style="text;html=1;strokeColor=none;fillColor=none;align=center;verticalAlign=middle;whiteSpace=wrap;rounded=0;fontSize=16;" parent="1" vertex="1">
          <mxGeometry x="280" y="295" width="30" height="20" as="geometry" />
        </mxCell>
      </root>
    </mxGraphModel>
  </diagram>
  <diagram id="jVDk-Q4vFLW4HF1N_lEj" name="one-dimension">
    <mxGraphModel dx="525" dy="321" grid="1" gridSize="10" guides="1" tooltips="1" connect="1" arrows="1" fold="1" page="1" pageScale="1" pageWidth="827" pageHeight="1169" math="1" shadow="0">
      <root>
        <mxCell id="0" />
        <mxCell id="1" parent="0" />
        <mxCell id="Y1KPzu2e0rGUqRq2Nwuo-6" value="" style="rounded=0;whiteSpace=wrap;html=1;fillColor=#d5e8d4;strokeColor=#82b366;" vertex="1" parent="1">
          <mxGeometry x="205" y="321" width="71" height="4" as="geometry" />
        </mxCell>
        <mxCell id="ue5GYk7gsOKa8UIo4n7l-2" value="" style="endArrow=classic;html=1;rounded=0;" edge="1" parent="1">
          <mxGeometry width="50" height="50" relative="1" as="geometry">
            <mxPoint x="180" y="282" as="sourcePoint" />
            <mxPoint x="320" y="282" as="targetPoint" />
          </mxGeometry>
        </mxCell>
        <mxCell id="ue5GYk7gsOKa8UIo4n7l-4" value="1" style="text;html=1;strokeColor=none;fillColor=none;align=center;verticalAlign=middle;whiteSpace=wrap;rounded=0;" vertex="1" parent="1">
          <mxGeometry x="200" y="284" width="10" height="10" as="geometry" />
        </mxCell>
        <mxCell id="ue5GYk7gsOKa8UIo4n7l-5" value="10" style="text;html=1;strokeColor=none;fillColor=none;align=center;verticalAlign=middle;whiteSpace=wrap;rounded=0;" vertex="1" parent="1">
          <mxGeometry x="270" y="284" width="10" height="10" as="geometry" />
        </mxCell>
        <mxCell id="ue5GYk7gsOKa8UIo4n7l-9" value="" style="group" vertex="1" connectable="0" parent="1">
          <mxGeometry x="203.5" y="280" width="5" height="5" as="geometry" />
        </mxCell>
        <mxCell id="ue5GYk7gsOKa8UIo4n7l-7" value="" style="endArrow=none;html=1;rounded=0;jumpSize=6;" edge="1" parent="ue5GYk7gsOKa8UIo4n7l-9">
          <mxGeometry width="50" height="50" relative="1" as="geometry">
            <mxPoint y="5" as="sourcePoint" />
            <mxPoint x="5" as="targetPoint" />
          </mxGeometry>
        </mxCell>
        <mxCell id="ue5GYk7gsOKa8UIo4n7l-8" value="" style="endArrow=none;html=1;rounded=0;jumpSize=6;" edge="1" parent="ue5GYk7gsOKa8UIo4n7l-9">
          <mxGeometry width="50" height="50" relative="1" as="geometry">
            <mxPoint x="5" y="5" as="sourcePoint" />
            <mxPoint as="targetPoint" />
          </mxGeometry>
        </mxCell>
        <mxCell id="ue5GYk7gsOKa8UIo4n7l-10" value="" style="group" vertex="1" connectable="0" parent="1">
          <mxGeometry x="273" y="280" width="5" height="5" as="geometry" />
        </mxCell>
        <mxCell id="ue5GYk7gsOKa8UIo4n7l-11" value="" style="endArrow=none;html=1;rounded=0;jumpSize=6;" edge="1" parent="ue5GYk7gsOKa8UIo4n7l-10">
          <mxGeometry width="50" height="50" relative="1" as="geometry">
            <mxPoint y="5" as="sourcePoint" />
            <mxPoint x="5" as="targetPoint" />
          </mxGeometry>
        </mxCell>
        <mxCell id="ue5GYk7gsOKa8UIo4n7l-12" value="" style="endArrow=none;html=1;rounded=0;jumpSize=6;" edge="1" parent="ue5GYk7gsOKa8UIo4n7l-10">
          <mxGeometry width="50" height="50" relative="1" as="geometry">
            <mxPoint x="5" y="5" as="sourcePoint" />
            <mxPoint as="targetPoint" />
          </mxGeometry>
        </mxCell>
        <mxCell id="ue5GYk7gsOKa8UIo4n7l-13" value="" style="group" vertex="1" connectable="0" parent="1">
          <mxGeometry x="220" y="280" width="5" height="5" as="geometry" />
        </mxCell>
        <mxCell id="ue5GYk7gsOKa8UIo4n7l-14" value="" style="endArrow=none;html=1;rounded=0;jumpSize=6;" edge="1" parent="ue5GYk7gsOKa8UIo4n7l-13">
          <mxGeometry width="50" height="50" relative="1" as="geometry">
            <mxPoint y="5" as="sourcePoint" />
            <mxPoint x="5" as="targetPoint" />
          </mxGeometry>
        </mxCell>
        <mxCell id="ue5GYk7gsOKa8UIo4n7l-15" value="" style="endArrow=none;html=1;rounded=0;jumpSize=6;" edge="1" parent="ue5GYk7gsOKa8UIo4n7l-13">
          <mxGeometry width="50" height="50" relative="1" as="geometry">
            <mxPoint x="5" y="5" as="sourcePoint" />
            <mxPoint as="targetPoint" />
          </mxGeometry>
        </mxCell>
        <mxCell id="ue5GYk7gsOKa8UIo4n7l-16" value="x" style="text;html=1;strokeColor=none;fillColor=none;align=center;verticalAlign=middle;whiteSpace=wrap;rounded=0;" vertex="1" parent="1">
          <mxGeometry x="320" y="280" width="10" height="10" as="geometry" />
        </mxCell>
        <mxCell id="ue5GYk7gsOKa8UIo4n7l-17" value="" style="endArrow=classic;html=1;rounded=0;" edge="1" parent="1">
          <mxGeometry width="50" height="50" relative="1" as="geometry">
            <mxPoint x="180" y="323" as="sourcePoint" />
            <mxPoint x="320" y="323" as="targetPoint" />
          </mxGeometry>
        </mxCell>
        <mxCell id="ue5GYk7gsOKa8UIo4n7l-18" value="1" style="text;html=1;strokeColor=none;fillColor=none;align=center;verticalAlign=middle;whiteSpace=wrap;rounded=0;" vertex="1" parent="1">
          <mxGeometry x="200" y="325" width="10" height="10" as="geometry" />
        </mxCell>
        <mxCell id="ue5GYk7gsOKa8UIo4n7l-19" value="10" style="text;html=1;strokeColor=none;fillColor=none;align=center;verticalAlign=middle;whiteSpace=wrap;rounded=0;" vertex="1" parent="1">
          <mxGeometry x="270" y="325" width="10" height="10" as="geometry" />
        </mxCell>
        <mxCell id="ue5GYk7gsOKa8UIo4n7l-20" value="" style="group" vertex="1" connectable="0" parent="1">
          <mxGeometry x="203.5" y="321" width="5" height="5" as="geometry" />
        </mxCell>
        <mxCell id="ue5GYk7gsOKa8UIo4n7l-21" value="" style="endArrow=none;html=1;rounded=0;jumpSize=6;" edge="1" parent="ue5GYk7gsOKa8UIo4n7l-20">
          <mxGeometry width="50" height="50" relative="1" as="geometry">
            <mxPoint y="5" as="sourcePoint" />
            <mxPoint x="5" as="targetPoint" />
          </mxGeometry>
        </mxCell>
        <mxCell id="ue5GYk7gsOKa8UIo4n7l-22" value="" style="endArrow=none;html=1;rounded=0;jumpSize=6;" edge="1" parent="ue5GYk7gsOKa8UIo4n7l-20">
          <mxGeometry width="50" height="50" relative="1" as="geometry">
            <mxPoint x="5" y="5" as="sourcePoint" />
            <mxPoint as="targetPoint" />
          </mxGeometry>
        </mxCell>
        <mxCell id="ue5GYk7gsOKa8UIo4n7l-23" value="" style="group" vertex="1" connectable="0" parent="1">
          <mxGeometry x="273" y="321" width="5" height="5" as="geometry" />
        </mxCell>
        <mxCell id="ue5GYk7gsOKa8UIo4n7l-24" value="" style="endArrow=none;html=1;rounded=0;jumpSize=6;" edge="1" parent="ue5GYk7gsOKa8UIo4n7l-23">
          <mxGeometry width="50" height="50" relative="1" as="geometry">
            <mxPoint y="5" as="sourcePoint" />
            <mxPoint x="5" as="targetPoint" />
          </mxGeometry>
        </mxCell>
        <mxCell id="ue5GYk7gsOKa8UIo4n7l-25" value="" style="endArrow=none;html=1;rounded=0;jumpSize=6;" edge="1" parent="ue5GYk7gsOKa8UIo4n7l-23">
          <mxGeometry width="50" height="50" relative="1" as="geometry">
            <mxPoint x="5" y="5" as="sourcePoint" />
            <mxPoint as="targetPoint" />
          </mxGeometry>
        </mxCell>
        <mxCell id="ue5GYk7gsOKa8UIo4n7l-29" value="x" style="text;html=1;strokeColor=none;fillColor=none;align=center;verticalAlign=middle;whiteSpace=wrap;rounded=0;" vertex="1" parent="1">
          <mxGeometry x="320" y="321" width="10" height="10" as="geometry" />
        </mxCell>
        <mxCell id="ue5GYk7gsOKa8UIo4n7l-30" value="x: [1, 10]" style="text;html=1;strokeColor=none;fillColor=none;align=center;verticalAlign=middle;whiteSpace=wrap;rounded=0;" vertex="1" parent="1">
          <mxGeometry x="413" y="277.5" width="60" height="10" as="geometry" />
        </mxCell>
        <mxCell id="ue5GYk7gsOKa8UIo4n7l-34" value="" style="html=1;shadow=0;dashed=0;align=center;verticalAlign=middle;shape=mxgraph.arrows2.arrow;dy=0.6;dx=20;notch=0;spacing=2;rotation=0;perimeterSpacing=1;fillColor=#f8cecc;strokeColor=#b85450;" vertex="1" parent="1">
          <mxGeometry x="350" y="277.5" width="50" height="10" as="geometry" />
        </mxCell>
        <mxCell id="_RJPxkv6hiznLBozswA7-1" value="$$\alpha$$" style="text;html=1;strokeColor=none;fillColor=none;align=center;verticalAlign=middle;whiteSpace=wrap;rounded=0;" vertex="1" parent="1">
          <mxGeometry x="365" y="263.5" width="20" height="14" as="geometry" />
        </mxCell>
        <mxCell id="Y1KPzu2e0rGUqRq2Nwuo-1" value="" style="html=1;shadow=0;dashed=0;align=center;verticalAlign=middle;shape=mxgraph.arrows2.arrow;dy=0.6;dx=20;notch=0;spacing=2;rotation=-180;perimeterSpacing=1;fillColor=#dae8fc;strokeColor=#6c8ebf;" vertex="1" parent="1">
          <mxGeometry x="350" y="318.5" width="50" height="10" as="geometry" />
        </mxCell>
        <mxCell id="Y1KPzu2e0rGUqRq2Nwuo-2" value="$$\gamma$$" style="text;html=1;strokeColor=none;fillColor=none;align=center;verticalAlign=middle;whiteSpace=wrap;rounded=0;" vertex="1" parent="1">
          <mxGeometry x="360" y="295" width="30" height="30" as="geometry" />
        </mxCell>
        <mxCell id="Y1KPzu2e0rGUqRq2Nwuo-3" value="x: [1, 10]" style="text;html=1;strokeColor=none;fillColor=none;align=center;verticalAlign=middle;whiteSpace=wrap;rounded=0;" vertex="1" parent="1">
          <mxGeometry x="413" y="318.5" width="60" height="10" as="geometry" />
        </mxCell>
        <mxCell id="Y1KPzu2e0rGUqRq2Nwuo-8" value="3" style="text;html=1;strokeColor=none;fillColor=none;align=center;verticalAlign=middle;whiteSpace=wrap;rounded=0;" vertex="1" parent="1">
          <mxGeometry x="217.5" y="284" width="10" height="10" as="geometry" />
        </mxCell>
        <mxCell id="Y1KPzu2e0rGUqRq2Nwuo-11" value="" style="group" vertex="1" connectable="0" parent="1">
          <mxGeometry x="258" y="280" width="5" height="5" as="geometry" />
        </mxCell>
        <mxCell id="Y1KPzu2e0rGUqRq2Nwuo-12" value="" style="endArrow=none;html=1;rounded=0;jumpSize=6;" edge="1" parent="Y1KPzu2e0rGUqRq2Nwuo-11">
          <mxGeometry width="50" height="50" relative="1" as="geometry">
            <mxPoint y="5" as="sourcePoint" />
            <mxPoint x="5" as="targetPoint" />
          </mxGeometry>
        </mxCell>
        <mxCell id="Y1KPzu2e0rGUqRq2Nwuo-13" value="" style="endArrow=none;html=1;rounded=0;jumpSize=6;" edge="1" parent="Y1KPzu2e0rGUqRq2Nwuo-11">
          <mxGeometry width="50" height="50" relative="1" as="geometry">
            <mxPoint x="5" y="5" as="sourcePoint" />
            <mxPoint as="targetPoint" />
          </mxGeometry>
        </mxCell>
        <mxCell id="Y1KPzu2e0rGUqRq2Nwuo-14" value="8" style="text;html=1;strokeColor=none;fillColor=none;align=center;verticalAlign=middle;whiteSpace=wrap;rounded=0;" vertex="1" parent="1">
          <mxGeometry x="255.5" y="284" width="10" height="10" as="geometry" />
        </mxCell>
        <mxCell id="Y1KPzu2e0rGUqRq2Nwuo-15" value="" style="group" vertex="1" connectable="0" parent="1">
          <mxGeometry x="219" y="321" width="5" height="5" as="geometry" />
        </mxCell>
        <mxCell id="Y1KPzu2e0rGUqRq2Nwuo-16" value="" style="endArrow=none;html=1;rounded=0;jumpSize=6;" edge="1" parent="Y1KPzu2e0rGUqRq2Nwuo-15">
          <mxGeometry width="50" height="50" relative="1" as="geometry">
            <mxPoint y="5" as="sourcePoint" />
            <mxPoint x="5" as="targetPoint" />
          </mxGeometry>
        </mxCell>
        <mxCell id="Y1KPzu2e0rGUqRq2Nwuo-17" value="" style="endArrow=none;html=1;rounded=0;jumpSize=6;" edge="1" parent="Y1KPzu2e0rGUqRq2Nwuo-15">
          <mxGeometry width="50" height="50" relative="1" as="geometry">
            <mxPoint x="5" y="5" as="sourcePoint" />
            <mxPoint as="targetPoint" />
          </mxGeometry>
        </mxCell>
        <mxCell id="Y1KPzu2e0rGUqRq2Nwuo-18" value="3" style="text;html=1;strokeColor=none;fillColor=none;align=center;verticalAlign=middle;whiteSpace=wrap;rounded=0;" vertex="1" parent="1">
          <mxGeometry x="216.5" y="325" width="10" height="10" as="geometry" />
        </mxCell>
        <mxCell id="Y1KPzu2e0rGUqRq2Nwuo-19" value="" style="group" vertex="1" connectable="0" parent="1">
          <mxGeometry x="257" y="321" width="5" height="5" as="geometry" />
        </mxCell>
        <mxCell id="Y1KPzu2e0rGUqRq2Nwuo-20" value="" style="endArrow=none;html=1;rounded=0;jumpSize=6;" edge="1" parent="Y1KPzu2e0rGUqRq2Nwuo-19">
          <mxGeometry width="50" height="50" relative="1" as="geometry">
            <mxPoint y="5" as="sourcePoint" />
            <mxPoint x="5" as="targetPoint" />
          </mxGeometry>
        </mxCell>
        <mxCell id="Y1KPzu2e0rGUqRq2Nwuo-21" value="" style="endArrow=none;html=1;rounded=0;jumpSize=6;" edge="1" parent="Y1KPzu2e0rGUqRq2Nwuo-19">
          <mxGeometry width="50" height="50" relative="1" as="geometry">
            <mxPoint x="5" y="5" as="sourcePoint" />
            <mxPoint as="targetPoint" />
          </mxGeometry>
        </mxCell>
        <mxCell id="Y1KPzu2e0rGUqRq2Nwuo-22" value="8" style="text;html=1;strokeColor=none;fillColor=none;align=center;verticalAlign=middle;whiteSpace=wrap;rounded=0;" vertex="1" parent="1">
          <mxGeometry x="254.5" y="325" width="10" height="10" as="geometry" />
        </mxCell>
        <mxCell id="Y1KPzu2e0rGUqRq2Nwuo-23" value="" style="endArrow=classic;html=1;rounded=0;" edge="1" parent="1">
          <mxGeometry width="50" height="50" relative="1" as="geometry">
            <mxPoint x="178.5" y="388" as="sourcePoint" />
            <mxPoint x="318.5" y="388" as="targetPoint" />
          </mxGeometry>
        </mxCell>
        <mxCell id="Y1KPzu2e0rGUqRq2Nwuo-24" value="1" style="text;html=1;strokeColor=none;fillColor=none;align=center;verticalAlign=middle;whiteSpace=wrap;rounded=0;" vertex="1" parent="1">
          <mxGeometry x="198.5" y="390" width="10" height="10" as="geometry" />
        </mxCell>
        <mxCell id="Y1KPzu2e0rGUqRq2Nwuo-25" value="10" style="text;html=1;strokeColor=none;fillColor=none;align=center;verticalAlign=middle;whiteSpace=wrap;rounded=0;" vertex="1" parent="1">
          <mxGeometry x="268.5" y="390" width="10" height="10" as="geometry" />
        </mxCell>
        <mxCell id="Y1KPzu2e0rGUqRq2Nwuo-26" value="" style="group" vertex="1" connectable="0" parent="1">
          <mxGeometry x="202" y="386" width="5" height="5" as="geometry" />
        </mxCell>
        <mxCell id="Y1KPzu2e0rGUqRq2Nwuo-27" value="" style="endArrow=none;html=1;rounded=0;jumpSize=6;" edge="1" parent="Y1KPzu2e0rGUqRq2Nwuo-26">
          <mxGeometry width="50" height="50" relative="1" as="geometry">
            <mxPoint y="5" as="sourcePoint" />
            <mxPoint x="5" as="targetPoint" />
          </mxGeometry>
        </mxCell>
        <mxCell id="Y1KPzu2e0rGUqRq2Nwuo-28" value="" style="endArrow=none;html=1;rounded=0;jumpSize=6;" edge="1" parent="Y1KPzu2e0rGUqRq2Nwuo-26">
          <mxGeometry width="50" height="50" relative="1" as="geometry">
            <mxPoint x="5" y="5" as="sourcePoint" />
            <mxPoint as="targetPoint" />
          </mxGeometry>
        </mxCell>
        <mxCell id="Y1KPzu2e0rGUqRq2Nwuo-29" value="" style="group" vertex="1" connectable="0" parent="1">
          <mxGeometry x="271.5" y="386" width="5" height="5" as="geometry" />
        </mxCell>
        <mxCell id="Y1KPzu2e0rGUqRq2Nwuo-30" value="" style="endArrow=none;html=1;rounded=0;jumpSize=6;" edge="1" parent="Y1KPzu2e0rGUqRq2Nwuo-29">
          <mxGeometry width="50" height="50" relative="1" as="geometry">
            <mxPoint y="5" as="sourcePoint" />
            <mxPoint x="5" as="targetPoint" />
          </mxGeometry>
        </mxCell>
        <mxCell id="Y1KPzu2e0rGUqRq2Nwuo-31" value="" style="endArrow=none;html=1;rounded=0;jumpSize=6;" edge="1" parent="Y1KPzu2e0rGUqRq2Nwuo-29">
          <mxGeometry width="50" height="50" relative="1" as="geometry">
            <mxPoint x="5" y="5" as="sourcePoint" />
            <mxPoint as="targetPoint" />
          </mxGeometry>
        </mxCell>
        <mxCell id="Y1KPzu2e0rGUqRq2Nwuo-32" value="" style="group" vertex="1" connectable="0" parent="1">
          <mxGeometry x="218.5" y="386" width="5" height="5" as="geometry" />
        </mxCell>
        <mxCell id="Y1KPzu2e0rGUqRq2Nwuo-33" value="" style="endArrow=none;html=1;rounded=0;jumpSize=6;" edge="1" parent="Y1KPzu2e0rGUqRq2Nwuo-32">
          <mxGeometry width="50" height="50" relative="1" as="geometry">
            <mxPoint y="5" as="sourcePoint" />
            <mxPoint x="5" as="targetPoint" />
          </mxGeometry>
        </mxCell>
        <mxCell id="Y1KPzu2e0rGUqRq2Nwuo-34" value="" style="endArrow=none;html=1;rounded=0;jumpSize=6;" edge="1" parent="Y1KPzu2e0rGUqRq2Nwuo-32">
          <mxGeometry width="50" height="50" relative="1" as="geometry">
            <mxPoint x="5" y="5" as="sourcePoint" />
            <mxPoint as="targetPoint" />
          </mxGeometry>
        </mxCell>
        <mxCell id="Y1KPzu2e0rGUqRq2Nwuo-35" value="x" style="text;html=1;strokeColor=none;fillColor=none;align=center;verticalAlign=middle;whiteSpace=wrap;rounded=0;" vertex="1" parent="1">
          <mxGeometry x="318.5" y="386" width="10" height="10" as="geometry" />
        </mxCell>
        <mxCell id="Y1KPzu2e0rGUqRq2Nwuo-36" value="x: [1, 10]" style="text;html=1;strokeColor=none;fillColor=none;align=center;verticalAlign=middle;whiteSpace=wrap;rounded=0;" vertex="1" parent="1">
          <mxGeometry x="413.5" y="400" width="60" height="10" as="geometry" />
        </mxCell>
        <mxCell id="Y1KPzu2e0rGUqRq2Nwuo-37" value="" style="html=1;shadow=0;dashed=0;align=center;verticalAlign=middle;shape=mxgraph.arrows2.arrow;dy=0.6;dx=20;notch=0;spacing=2;rotation=0;perimeterSpacing=1;fillColor=#f8cecc;strokeColor=#b85450;" vertex="1" parent="1">
          <mxGeometry x="348.5" y="383.5" width="50" height="10" as="geometry" />
        </mxCell>
        <mxCell id="Y1KPzu2e0rGUqRq2Nwuo-38" value="$$\alpha$$" style="text;html=1;strokeColor=none;fillColor=none;align=center;verticalAlign=middle;whiteSpace=wrap;rounded=0;" vertex="1" parent="1">
          <mxGeometry x="358.5" y="360" width="30" height="30" as="geometry" />
        </mxCell>
        <mxCell id="Y1KPzu2e0rGUqRq2Nwuo-39" value="3" style="text;html=1;strokeColor=none;fillColor=none;align=center;verticalAlign=middle;whiteSpace=wrap;rounded=0;" vertex="1" parent="1">
          <mxGeometry x="216" y="390" width="10" height="10" as="geometry" />
        </mxCell>
        <mxCell id="Y1KPzu2e0rGUqRq2Nwuo-40" value="" style="group" vertex="1" connectable="0" parent="1">
          <mxGeometry x="256.5" y="386" width="5" height="5" as="geometry" />
        </mxCell>
        <mxCell id="Y1KPzu2e0rGUqRq2Nwuo-41" value="" style="endArrow=none;html=1;rounded=0;jumpSize=6;" edge="1" parent="Y1KPzu2e0rGUqRq2Nwuo-40">
          <mxGeometry width="50" height="50" relative="1" as="geometry">
            <mxPoint y="5" as="sourcePoint" />
            <mxPoint x="5" as="targetPoint" />
          </mxGeometry>
        </mxCell>
        <mxCell id="Y1KPzu2e0rGUqRq2Nwuo-42" value="" style="endArrow=none;html=1;rounded=0;jumpSize=6;" edge="1" parent="Y1KPzu2e0rGUqRq2Nwuo-40">
          <mxGeometry width="50" height="50" relative="1" as="geometry">
            <mxPoint x="5" y="5" as="sourcePoint" />
            <mxPoint as="targetPoint" />
          </mxGeometry>
        </mxCell>
        <mxCell id="Y1KPzu2e0rGUqRq2Nwuo-43" value="8" style="text;html=1;strokeColor=none;fillColor=none;align=center;verticalAlign=middle;whiteSpace=wrap;rounded=0;" vertex="1" parent="1">
          <mxGeometry x="254" y="390" width="10" height="10" as="geometry" />
        </mxCell>
        <mxCell id="Y1KPzu2e0rGUqRq2Nwuo-46" value="x: [3, 8]" style="text;html=1;strokeColor=none;fillColor=none;align=center;verticalAlign=middle;whiteSpace=wrap;rounded=0;" vertex="1" parent="1">
          <mxGeometry x="408.5" y="366" width="60" height="10" as="geometry" />
        </mxCell>
        <mxCell id="Y1KPzu2e0rGUqRq2Nwuo-47" value="$$\sqsubseteq$$" style="text;html=1;strokeColor=none;fillColor=none;align=center;verticalAlign=middle;whiteSpace=wrap;rounded=0;" vertex="1" parent="1">
          <mxGeometry x="428.5" y="381" width="20" height="14" as="geometry" />
        </mxCell>
        <mxCell id="Y1KPzu2e0rGUqRq2Nwuo-48" value="" style="endArrow=none;html=1;rounded=0;jumpSize=6;dashed=1;dashPattern=1 1;" edge="1" parent="1">
          <mxGeometry width="50" height="50" relative="1" as="geometry">
            <mxPoint x="220.5" y="384" as="sourcePoint" />
            <mxPoint x="259.5" y="384" as="targetPoint" />
          </mxGeometry>
        </mxCell>
        <mxCell id="Y1KPzu2e0rGUqRq2Nwuo-49" value="" style="endArrow=none;html=1;rounded=0;jumpSize=6;" edge="1" parent="1">
          <mxGeometry width="50" height="50" relative="1" as="geometry">
            <mxPoint x="259" y="388" as="sourcePoint" />
            <mxPoint x="259" y="380" as="targetPoint" />
          </mxGeometry>
        </mxCell>
        <mxCell id="Y1KPzu2e0rGUqRq2Nwuo-50" value="" style="endArrow=none;html=1;rounded=0;jumpSize=6;" edge="1" parent="1">
          <mxGeometry width="50" height="50" relative="1" as="geometry">
            <mxPoint x="221" y="387.99999999999994" as="sourcePoint" />
            <mxPoint x="221" y="380" as="targetPoint" />
          </mxGeometry>
        </mxCell>
        <mxCell id="Y1KPzu2e0rGUqRq2Nwuo-51" value="" style="endArrow=none;html=1;rounded=0;jumpSize=6;dashed=1;dashPattern=1 1;" edge="1" parent="1">
          <mxGeometry width="50" height="50" relative="1" as="geometry">
            <mxPoint x="204" y="380" as="sourcePoint" />
            <mxPoint x="274.5" y="380" as="targetPoint" />
          </mxGeometry>
        </mxCell>
        <mxCell id="Y1KPzu2e0rGUqRq2Nwuo-52" value="" style="endArrow=none;html=1;rounded=0;jumpSize=6;" edge="1" parent="1">
          <mxGeometry width="50" height="50" relative="1" as="geometry">
            <mxPoint x="273.99999999999994" y="388" as="sourcePoint" />
            <mxPoint x="274" y="380" as="targetPoint" />
          </mxGeometry>
        </mxCell>
        <mxCell id="Y1KPzu2e0rGUqRq2Nwuo-53" value="" style="endArrow=none;html=1;rounded=0;jumpSize=6;" edge="1" parent="1">
          <mxGeometry width="50" height="50" relative="1" as="geometry">
            <mxPoint x="204.5" y="388" as="sourcePoint" />
            <mxPoint x="204.5" y="380" as="targetPoint" />
          </mxGeometry>
        </mxCell>
        <mxCell id="Y1KPzu2e0rGUqRq2Nwuo-54" value="" style="curved=1;endArrow=classic;html=1;rounded=0;jumpSize=6;arcSize=20;strokeOpacity=100;fillOpacity=100;strokeWidth=0.5;endSize=2;dashed=1;" edge="1" parent="1" target="Y1KPzu2e0rGUqRq2Nwuo-46">
          <mxGeometry width="50" height="50" relative="1" as="geometry">
            <mxPoint x="250" y="384" as="sourcePoint" />
            <mxPoint x="390" y="350" as="targetPoint" />
            <Array as="points">
              <mxPoint x="340" y="350" />
            </Array>
          </mxGeometry>
        </mxCell>
        <mxCell id="Y1KPzu2e0rGUqRq2Nwuo-55" value="" style="curved=1;endArrow=classic;html=1;rounded=0;jumpSize=6;arcSize=20;strokeOpacity=100;fillOpacity=100;strokeWidth=0.5;endSize=2;entryX=0.096;entryY=0.162;entryDx=0;entryDy=0;exitX=0;exitY=0.75;exitDx=0;exitDy=0;entryPerimeter=0;dashed=1;" edge="1" parent="1" target="Y1KPzu2e0rGUqRq2Nwuo-36">
          <mxGeometry width="50" height="50" relative="1" as="geometry">
            <mxPoint x="270" y="380" as="sourcePoint" />
            <mxPoint x="413.6190476190475" y="376" as="targetPoint" />
            <Array as="points">
              <mxPoint x="350" y="360" />
            </Array>
          </mxGeometry>
        </mxCell>
        <mxCell id="Y1KPzu2e0rGUqRq2Nwuo-57" value="$$(a)$$" style="text;html=1;strokeColor=none;fillColor=none;align=center;verticalAlign=middle;whiteSpace=wrap;rounded=0;" vertex="1" parent="1">
          <mxGeometry x="140" y="273.5" width="20" height="14" as="geometry" />
        </mxCell>
        <mxCell id="Y1KPzu2e0rGUqRq2Nwuo-58" value="$$(b)$$" style="text;html=1;strokeColor=none;fillColor=none;align=center;verticalAlign=middle;whiteSpace=wrap;rounded=0;" vertex="1" parent="1">
          <mxGeometry x="140" y="316" width="20" height="14" as="geometry" />
        </mxCell>
        <mxCell id="Y1KPzu2e0rGUqRq2Nwuo-59" value="$$(c)$$" style="text;html=1;strokeColor=none;fillColor=none;align=center;verticalAlign=middle;whiteSpace=wrap;rounded=0;" vertex="1" parent="1">
          <mxGeometry x="140" y="381" width="20" height="14" as="geometry" />
        </mxCell>
        <mxCell id="Y1KPzu2e0rGUqRq2Nwuo-91" value="" style="rounded=0;whiteSpace=wrap;html=1;fillColor=#d5e8d4;strokeColor=#82b366;" vertex="1" parent="1">
          <mxGeometry x="204" y="438" width="71" height="20" as="geometry" />
        </mxCell>
        <mxCell id="Y1KPzu2e0rGUqRq2Nwuo-93" value="1" style="text;html=1;strokeColor=none;fillColor=none;align=center;verticalAlign=middle;whiteSpace=wrap;rounded=0;" vertex="1" parent="1">
          <mxGeometry x="199" y="450" width="10" height="10" as="geometry" />
        </mxCell>
        <mxCell id="Y1KPzu2e0rGUqRq2Nwuo-94" value="10" style="text;html=1;strokeColor=none;fillColor=none;align=center;verticalAlign=middle;whiteSpace=wrap;rounded=0;" vertex="1" parent="1">
          <mxGeometry x="269" y="450" width="10" height="10" as="geometry" />
        </mxCell>
        <mxCell id="Y1KPzu2e0rGUqRq2Nwuo-95" value="" style="group" vertex="1" connectable="0" parent="1">
          <mxGeometry x="202.5" y="446" width="5" height="5" as="geometry" />
        </mxCell>
        <mxCell id="Y1KPzu2e0rGUqRq2Nwuo-96" value="" style="endArrow=none;html=1;rounded=0;jumpSize=6;" edge="1" parent="Y1KPzu2e0rGUqRq2Nwuo-95">
          <mxGeometry width="50" height="50" relative="1" as="geometry">
            <mxPoint y="5" as="sourcePoint" />
            <mxPoint x="5" as="targetPoint" />
          </mxGeometry>
        </mxCell>
        <mxCell id="Y1KPzu2e0rGUqRq2Nwuo-97" value="" style="endArrow=none;html=1;rounded=0;jumpSize=6;" edge="1" parent="Y1KPzu2e0rGUqRq2Nwuo-95">
          <mxGeometry width="50" height="50" relative="1" as="geometry">
            <mxPoint x="5" y="5" as="sourcePoint" />
            <mxPoint as="targetPoint" />
          </mxGeometry>
        </mxCell>
        <mxCell id="Y1KPzu2e0rGUqRq2Nwuo-98" value="" style="group" vertex="1" connectable="0" parent="1">
          <mxGeometry x="272" y="446" width="5" height="5" as="geometry" />
        </mxCell>
        <mxCell id="Y1KPzu2e0rGUqRq2Nwuo-99" value="" style="endArrow=none;html=1;rounded=0;jumpSize=6;" edge="1" parent="Y1KPzu2e0rGUqRq2Nwuo-98">
          <mxGeometry width="50" height="50" relative="1" as="geometry">
            <mxPoint y="5" as="sourcePoint" />
            <mxPoint x="5" as="targetPoint" />
          </mxGeometry>
        </mxCell>
        <mxCell id="Y1KPzu2e0rGUqRq2Nwuo-100" value="" style="endArrow=none;html=1;rounded=0;jumpSize=6;" edge="1" parent="Y1KPzu2e0rGUqRq2Nwuo-98">
          <mxGeometry width="50" height="50" relative="1" as="geometry">
            <mxPoint x="5" y="5" as="sourcePoint" />
            <mxPoint as="targetPoint" />
          </mxGeometry>
        </mxCell>
        <mxCell id="Y1KPzu2e0rGUqRq2Nwuo-101" value="x" style="text;html=1;strokeColor=none;fillColor=none;align=center;verticalAlign=middle;whiteSpace=wrap;rounded=0;" vertex="1" parent="1">
          <mxGeometry x="319" y="446" width="10" height="10" as="geometry" />
        </mxCell>
        <mxCell id="Y1KPzu2e0rGUqRq2Nwuo-102" value="" style="html=1;shadow=0;dashed=0;align=center;verticalAlign=middle;shape=mxgraph.arrows2.arrow;dy=0.6;dx=20;notch=0;spacing=2;rotation=-180;perimeterSpacing=1;fillColor=#dae8fc;strokeColor=#6c8ebf;" vertex="1" parent="1">
          <mxGeometry x="349" y="443.5" width="50" height="10" as="geometry" />
        </mxCell>
        <mxCell id="Y1KPzu2e0rGUqRq2Nwuo-112" value="$$(d)$$" style="text;html=1;strokeColor=none;fillColor=none;align=center;verticalAlign=middle;whiteSpace=wrap;rounded=0;" vertex="1" parent="1">
          <mxGeometry x="139" y="441" width="20" height="14" as="geometry" />
        </mxCell>
        <mxCell id="Y1KPzu2e0rGUqRq2Nwuo-113" value="" style="rounded=0;whiteSpace=wrap;html=1;fillColor=#d5e8d4;strokeColor=#82b366;" vertex="1" parent="1">
          <mxGeometry x="219.5" y="443" width="40" height="10" as="geometry" />
        </mxCell>
        <mxCell id="Y1KPzu2e0rGUqRq2Nwuo-104" value="" style="group" vertex="1" connectable="0" parent="1">
          <mxGeometry x="218" y="446" width="5" height="5" as="geometry" />
        </mxCell>
        <mxCell id="Y1KPzu2e0rGUqRq2Nwuo-105" value="" style="endArrow=none;html=1;rounded=0;jumpSize=6;" edge="1" parent="Y1KPzu2e0rGUqRq2Nwuo-104">
          <mxGeometry width="50" height="50" relative="1" as="geometry">
            <mxPoint y="5" as="sourcePoint" />
            <mxPoint x="5" as="targetPoint" />
          </mxGeometry>
        </mxCell>
        <mxCell id="Y1KPzu2e0rGUqRq2Nwuo-106" value="" style="endArrow=none;html=1;rounded=0;jumpSize=6;" edge="1" parent="Y1KPzu2e0rGUqRq2Nwuo-104">
          <mxGeometry width="50" height="50" relative="1" as="geometry">
            <mxPoint x="5" y="5" as="sourcePoint" />
            <mxPoint as="targetPoint" />
          </mxGeometry>
        </mxCell>
        <mxCell id="Y1KPzu2e0rGUqRq2Nwuo-107" value="3" style="text;html=1;strokeColor=none;fillColor=none;align=center;verticalAlign=middle;whiteSpace=wrap;rounded=0;" vertex="1" parent="1">
          <mxGeometry x="215.5" y="450" width="10" height="10" as="geometry" />
        </mxCell>
        <mxCell id="Y1KPzu2e0rGUqRq2Nwuo-108" value="" style="group" vertex="1" connectable="0" parent="1">
          <mxGeometry x="256" y="446" width="5" height="5" as="geometry" />
        </mxCell>
        <mxCell id="Y1KPzu2e0rGUqRq2Nwuo-109" value="" style="endArrow=none;html=1;rounded=0;jumpSize=6;" edge="1" parent="Y1KPzu2e0rGUqRq2Nwuo-108">
          <mxGeometry width="50" height="50" relative="1" as="geometry">
            <mxPoint y="5" as="sourcePoint" />
            <mxPoint x="5" as="targetPoint" />
          </mxGeometry>
        </mxCell>
        <mxCell id="Y1KPzu2e0rGUqRq2Nwuo-110" value="" style="endArrow=none;html=1;rounded=0;jumpSize=6;" edge="1" parent="Y1KPzu2e0rGUqRq2Nwuo-108">
          <mxGeometry width="50" height="50" relative="1" as="geometry">
            <mxPoint x="5" y="5" as="sourcePoint" />
            <mxPoint as="targetPoint" />
          </mxGeometry>
        </mxCell>
        <mxCell id="Y1KPzu2e0rGUqRq2Nwuo-111" value="8" style="text;html=1;strokeColor=none;fillColor=none;align=center;verticalAlign=middle;whiteSpace=wrap;rounded=0;" vertex="1" parent="1">
          <mxGeometry x="253.5" y="450" width="10" height="10" as="geometry" />
        </mxCell>
        <mxCell id="Y1KPzu2e0rGUqRq2Nwuo-92" value="" style="endArrow=classic;html=1;rounded=0;" edge="1" parent="1">
          <mxGeometry width="50" height="50" relative="1" as="geometry">
            <mxPoint x="179" y="448" as="sourcePoint" />
            <mxPoint x="319" y="448" as="targetPoint" />
          </mxGeometry>
        </mxCell>
        <mxCell id="Y1KPzu2e0rGUqRq2Nwuo-119" value="x: [1, 10]" style="text;html=1;strokeColor=none;fillColor=none;align=center;verticalAlign=middle;whiteSpace=wrap;rounded=0;" vertex="1" parent="1">
          <mxGeometry x="416.5" y="460.5" width="60" height="10" as="geometry" />
        </mxCell>
        <mxCell id="Y1KPzu2e0rGUqRq2Nwuo-120" value="x: [3, 8]" style="text;html=1;strokeColor=none;fillColor=none;align=center;verticalAlign=middle;whiteSpace=wrap;rounded=0;" vertex="1" parent="1">
          <mxGeometry x="411.5" y="426.5" width="60" height="10" as="geometry" />
        </mxCell>
        <mxCell id="Y1KPzu2e0rGUqRq2Nwuo-121" value="$$\sqsubseteq$$" style="text;html=1;strokeColor=none;fillColor=none;align=center;verticalAlign=middle;whiteSpace=wrap;rounded=0;" vertex="1" parent="1">
          <mxGeometry x="431.5" y="441.5" width="20" height="14" as="geometry" />
        </mxCell>
        <mxCell id="Y1KPzu2e0rGUqRq2Nwuo-122" value="" style="curved=1;endArrow=classic;html=1;rounded=0;jumpSize=6;arcSize=20;strokeOpacity=100;fillOpacity=100;strokeWidth=0.5;endSize=2;dashed=1;" edge="1" parent="1" source="Y1KPzu2e0rGUqRq2Nwuo-120">
          <mxGeometry width="50" height="50" relative="1" as="geometry">
            <mxPoint x="397.4990476190475" y="425" as="sourcePoint" />
            <mxPoint x="243.88" y="443" as="targetPoint" />
            <Array as="points">
              <mxPoint x="333.88" y="409" />
            </Array>
          </mxGeometry>
        </mxCell>
        <mxCell id="Y1KPzu2e0rGUqRq2Nwuo-123" value="" style="curved=1;endArrow=classic;html=1;rounded=0;jumpSize=6;arcSize=20;strokeOpacity=100;fillOpacity=100;strokeWidth=0.5;endSize=2;exitX=0;exitY=0;exitDx=0;exitDy=0;dashed=1;entryX=0;entryY=0;entryDx=0;entryDy=0;" edge="1" parent="1" source="Y1KPzu2e0rGUqRq2Nwuo-119">
          <mxGeometry width="50" height="50" relative="1" as="geometry">
            <mxPoint x="408.76" y="460" as="sourcePoint" />
            <mxPoint x="274.5" y="438.38" as="targetPoint" />
            <Array as="points">
              <mxPoint x="354.5" y="418.38" />
            </Array>
          </mxGeometry>
        </mxCell>
        <mxCell id="Y1KPzu2e0rGUqRq2Nwuo-124" value="$$\gamma$$" style="text;html=1;strokeColor=none;fillColor=none;align=center;verticalAlign=middle;whiteSpace=wrap;rounded=0;" vertex="1" parent="1">
          <mxGeometry x="360" y="420" width="30" height="30" as="geometry" />
        </mxCell>
      </root>
    </mxGraphModel>
  </diagram>
  <diagram id="TSVRzyQLxcejRfbV6COM" name="two-dimension">
    <mxGraphModel dx="760" dy="465" grid="1" gridSize="10" guides="1" tooltips="1" connect="1" arrows="1" fold="1" page="1" pageScale="1" pageWidth="827" pageHeight="1169" math="1" shadow="0">
      <root>
        <mxCell id="0" />
        <mxCell id="1" parent="0" />
        <mxCell id="UB4O4ha0MIYpwrMY1wqc-65" value="" style="rounded=0;whiteSpace=wrap;html=1;strokeWidth=0.5;fontFamily=Helvetica;fontSize=11;fillColor=#d5e8d4;strokeColor=#82b366;" vertex="1" parent="1">
          <mxGeometry x="291.5" y="575" width="88.5" height="63" as="geometry" />
        </mxCell>
        <mxCell id="3CcBdgKlAedlCpzj1v3G-1" value="" style="endArrow=classic;html=1;rounded=0;strokeWidth=1;endSize=1;jumpSize=10;arcSize=20;jumpStyle=none;startSize=5;sourcePerimeterSpacing=0;" edge="1" parent="1">
          <mxGeometry width="50" height="50" relative="1" as="geometry">
            <mxPoint x="260" y="240" as="sourcePoint" />
            <mxPoint x="260" y="140" as="targetPoint" />
          </mxGeometry>
        </mxCell>
        <mxCell id="3CcBdgKlAedlCpzj1v3G-3" value="" style="endArrow=classic;html=1;rounded=0;strokeWidth=1;endSize=1;jumpSize=10;arcSize=20;jumpStyle=none;startSize=5;sourcePerimeterSpacing=0;" edge="1" parent="1">
          <mxGeometry width="50" height="50" relative="1" as="geometry">
            <mxPoint x="259.5" y="240" as="sourcePoint" />
            <mxPoint x="370" y="240" as="targetPoint" />
          </mxGeometry>
        </mxCell>
        <mxCell id="3BaAdR3-SQFw6U3AYHea-1" value="$$y$$" style="text;html=1;strokeColor=none;fillColor=none;align=center;verticalAlign=middle;whiteSpace=wrap;rounded=0;" vertex="1" parent="1">
          <mxGeometry x="240" y="130" width="20" height="14" as="geometry" />
        </mxCell>
        <mxCell id="3BaAdR3-SQFw6U3AYHea-2" value="$$x$$" style="text;html=1;strokeColor=none;fillColor=none;align=center;verticalAlign=middle;whiteSpace=wrap;rounded=0;" vertex="1" parent="1">
          <mxGeometry x="360" y="240" width="20" height="14" as="geometry" />
        </mxCell>
        <mxCell id="3BaAdR3-SQFw6U3AYHea-3" value="" style="ellipse;whiteSpace=wrap;html=1;fontFamily=Helvetica;fontSize=11;rotation=15;strokeWidth=0.5;fillColor=none;strokeColor=#6c8ebf;" vertex="1" parent="1">
          <mxGeometry x="270" y="160" width="90" height="60" as="geometry" />
        </mxCell>
        <mxCell id="IENv7uMUIxUcSmXRV36D-1" value="" style="group;strokeWidth=0.5;" vertex="1" connectable="0" parent="1">
          <mxGeometry x="304" y="157" width="3" height="3" as="geometry" />
        </mxCell>
        <mxCell id="IENv7uMUIxUcSmXRV36D-2" value="" style="endArrow=none;html=1;rounded=0;jumpSize=6;strokeWidth=0.5;" edge="1" parent="IENv7uMUIxUcSmXRV36D-1">
          <mxGeometry width="50" height="50" relative="1" as="geometry">
            <mxPoint y="3" as="sourcePoint" />
            <mxPoint x="3" as="targetPoint" />
          </mxGeometry>
        </mxCell>
        <mxCell id="IENv7uMUIxUcSmXRV36D-3" value="" style="endArrow=none;html=1;rounded=0;jumpSize=6;strokeWidth=0.5;" edge="1" parent="IENv7uMUIxUcSmXRV36D-1">
          <mxGeometry width="50" height="50" relative="1" as="geometry">
            <mxPoint x="3" y="3" as="sourcePoint" />
            <mxPoint as="targetPoint" />
          </mxGeometry>
        </mxCell>
        <mxCell id="IENv7uMUIxUcSmXRV36D-5" value="" style="endArrow=none;dashed=1;html=1;rounded=0;labelBackgroundColor=default;strokeColor=default;strokeWidth=0.5;fontFamily=Helvetica;fontSize=11;fontColor=default;startSize=5;endSize=1;shape=connector;jumpSize=8;dashPattern=1 4;" edge="1" parent="1">
          <mxGeometry width="50" height="50" relative="1" as="geometry">
            <mxPoint x="260" y="158.5" as="sourcePoint" />
            <mxPoint x="306" y="158.5" as="targetPoint" />
          </mxGeometry>
        </mxCell>
        <mxCell id="IENv7uMUIxUcSmXRV36D-6" value="$$77$$" style="text;html=1;strokeColor=none;fillColor=none;align=center;verticalAlign=middle;whiteSpace=wrap;rounded=0;" vertex="1" parent="1">
          <mxGeometry x="230" y="151.5" width="20" height="14" as="geometry" />
        </mxCell>
        <mxCell id="IENv7uMUIxUcSmXRV36D-7" value="" style="group;strokeWidth=0.5;" vertex="1" connectable="0" parent="1">
          <mxGeometry x="320" y="220" width="3" height="3" as="geometry" />
        </mxCell>
        <mxCell id="IENv7uMUIxUcSmXRV36D-8" value="" style="endArrow=none;html=1;rounded=0;jumpSize=6;strokeWidth=0.5;" edge="1" parent="IENv7uMUIxUcSmXRV36D-7">
          <mxGeometry width="50" height="50" relative="1" as="geometry">
            <mxPoint y="3" as="sourcePoint" />
            <mxPoint x="3" as="targetPoint" />
          </mxGeometry>
        </mxCell>
        <mxCell id="IENv7uMUIxUcSmXRV36D-9" value="" style="endArrow=none;html=1;rounded=0;jumpSize=6;strokeWidth=0.5;" edge="1" parent="IENv7uMUIxUcSmXRV36D-7">
          <mxGeometry width="50" height="50" relative="1" as="geometry">
            <mxPoint x="3" y="3" as="sourcePoint" />
            <mxPoint as="targetPoint" />
          </mxGeometry>
        </mxCell>
        <mxCell id="IENv7uMUIxUcSmXRV36D-10" value="" style="group;strokeWidth=0.5;" vertex="1" connectable="0" parent="1">
          <mxGeometry x="269" y="180" width="3" height="3" as="geometry" />
        </mxCell>
        <mxCell id="IENv7uMUIxUcSmXRV36D-11" value="" style="endArrow=none;html=1;rounded=0;jumpSize=6;strokeWidth=0.5;" edge="1" parent="IENv7uMUIxUcSmXRV36D-10">
          <mxGeometry width="50" height="50" relative="1" as="geometry">
            <mxPoint y="3" as="sourcePoint" />
            <mxPoint x="3" as="targetPoint" />
          </mxGeometry>
        </mxCell>
        <mxCell id="IENv7uMUIxUcSmXRV36D-12" value="" style="endArrow=none;html=1;rounded=0;jumpSize=6;strokeWidth=0.5;" edge="1" parent="IENv7uMUIxUcSmXRV36D-10">
          <mxGeometry width="50" height="50" relative="1" as="geometry">
            <mxPoint x="3" y="3" as="sourcePoint" />
            <mxPoint as="targetPoint" />
          </mxGeometry>
        </mxCell>
        <mxCell id="IENv7uMUIxUcSmXRV36D-13" value="" style="group;strokeWidth=0.5;" vertex="1" connectable="0" parent="1">
          <mxGeometry x="358" y="195" width="3" height="3" as="geometry" />
        </mxCell>
        <mxCell id="IENv7uMUIxUcSmXRV36D-14" value="" style="endArrow=none;html=1;rounded=0;jumpSize=6;strokeWidth=0.5;" edge="1" parent="IENv7uMUIxUcSmXRV36D-13">
          <mxGeometry width="50" height="50" relative="1" as="geometry">
            <mxPoint y="3" as="sourcePoint" />
            <mxPoint x="3" as="targetPoint" />
          </mxGeometry>
        </mxCell>
        <mxCell id="IENv7uMUIxUcSmXRV36D-15" value="" style="endArrow=none;html=1;rounded=0;jumpSize=6;strokeWidth=0.5;" edge="1" parent="IENv7uMUIxUcSmXRV36D-13">
          <mxGeometry width="50" height="50" relative="1" as="geometry">
            <mxPoint x="3" y="3" as="sourcePoint" />
            <mxPoint as="targetPoint" />
          </mxGeometry>
        </mxCell>
        <mxCell id="IENv7uMUIxUcSmXRV36D-16" value="" style="ellipse;whiteSpace=wrap;html=1;fontFamily=Helvetica;fontSize=11;rotation=11;strokeWidth=0.5;fillColor=none;strokeColor=#6c8ebf;" vertex="1" parent="1">
          <mxGeometry x="301.5" y="172.34" width="40" height="25.66" as="geometry" />
        </mxCell>
        <mxCell id="IENv7uMUIxUcSmXRV36D-17" value="" style="group;strokeWidth=0.5;" vertex="1" connectable="0" parent="1">
          <mxGeometry x="323" y="197" width="3" height="3" as="geometry" />
        </mxCell>
        <mxCell id="IENv7uMUIxUcSmXRV36D-18" value="" style="endArrow=none;html=1;rounded=0;jumpSize=6;strokeWidth=0.5;" edge="1" parent="IENv7uMUIxUcSmXRV36D-17">
          <mxGeometry width="50" height="50" relative="1" as="geometry">
            <mxPoint y="3" as="sourcePoint" />
            <mxPoint x="3" as="targetPoint" />
          </mxGeometry>
        </mxCell>
        <mxCell id="IENv7uMUIxUcSmXRV36D-19" value="" style="endArrow=none;html=1;rounded=0;jumpSize=6;strokeWidth=0.5;" edge="1" parent="IENv7uMUIxUcSmXRV36D-17">
          <mxGeometry width="50" height="50" relative="1" as="geometry">
            <mxPoint x="3" y="3" as="sourcePoint" />
            <mxPoint as="targetPoint" />
          </mxGeometry>
        </mxCell>
        <mxCell id="IENv7uMUIxUcSmXRV36D-20" value="" style="group;strokeWidth=0.5;" vertex="1" connectable="0" parent="1">
          <mxGeometry x="317" y="170.34" width="3" height="3" as="geometry" />
        </mxCell>
        <mxCell id="IENv7uMUIxUcSmXRV36D-21" value="" style="endArrow=none;html=1;rounded=0;jumpSize=6;strokeWidth=0.5;" edge="1" parent="IENv7uMUIxUcSmXRV36D-20">
          <mxGeometry width="50" height="50" relative="1" as="geometry">
            <mxPoint y="3" as="sourcePoint" />
            <mxPoint x="3" as="targetPoint" />
          </mxGeometry>
        </mxCell>
        <mxCell id="IENv7uMUIxUcSmXRV36D-22" value="" style="endArrow=none;html=1;rounded=0;jumpSize=6;strokeWidth=0.5;" edge="1" parent="IENv7uMUIxUcSmXRV36D-20">
          <mxGeometry width="50" height="50" relative="1" as="geometry">
            <mxPoint x="3" y="3" as="sourcePoint" />
            <mxPoint as="targetPoint" />
          </mxGeometry>
        </mxCell>
        <mxCell id="IENv7uMUIxUcSmXRV36D-23" value="" style="group;strokeWidth=0.5;" vertex="1" connectable="0" parent="1">
          <mxGeometry x="340" y="185.34" width="3" height="3" as="geometry" />
        </mxCell>
        <mxCell id="IENv7uMUIxUcSmXRV36D-24" value="" style="endArrow=none;html=1;rounded=0;jumpSize=6;strokeWidth=0.5;" edge="1" parent="IENv7uMUIxUcSmXRV36D-23">
          <mxGeometry width="50" height="50" relative="1" as="geometry">
            <mxPoint y="3" as="sourcePoint" />
            <mxPoint x="3" as="targetPoint" />
          </mxGeometry>
        </mxCell>
        <mxCell id="IENv7uMUIxUcSmXRV36D-25" value="" style="endArrow=none;html=1;rounded=0;jumpSize=6;strokeWidth=0.5;" edge="1" parent="IENv7uMUIxUcSmXRV36D-23">
          <mxGeometry width="50" height="50" relative="1" as="geometry">
            <mxPoint x="3" y="3" as="sourcePoint" />
            <mxPoint as="targetPoint" />
          </mxGeometry>
        </mxCell>
        <mxCell id="IENv7uMUIxUcSmXRV36D-26" value="" style="group;strokeWidth=0.5;" vertex="1" connectable="0" parent="1">
          <mxGeometry x="300" y="181" width="3" height="3" as="geometry" />
        </mxCell>
        <mxCell id="IENv7uMUIxUcSmXRV36D-27" value="" style="endArrow=none;html=1;rounded=0;jumpSize=6;strokeWidth=0.5;" edge="1" parent="IENv7uMUIxUcSmXRV36D-26">
          <mxGeometry width="50" height="50" relative="1" as="geometry">
            <mxPoint y="3" as="sourcePoint" />
            <mxPoint x="3" as="targetPoint" />
          </mxGeometry>
        </mxCell>
        <mxCell id="IENv7uMUIxUcSmXRV36D-28" value="" style="endArrow=none;html=1;rounded=0;jumpSize=6;strokeWidth=0.5;" edge="1" parent="IENv7uMUIxUcSmXRV36D-26">
          <mxGeometry width="50" height="50" relative="1" as="geometry">
            <mxPoint x="3" y="3" as="sourcePoint" />
            <mxPoint as="targetPoint" />
          </mxGeometry>
        </mxCell>
        <mxCell id="IENv7uMUIxUcSmXRV36D-61" value="" style="group;strokeWidth=0.5;" vertex="1" connectable="0" parent="1">
          <mxGeometry x="308" y="187" width="3" height="3" as="geometry" />
        </mxCell>
        <mxCell id="IENv7uMUIxUcSmXRV36D-62" value="" style="endArrow=none;html=1;rounded=0;jumpSize=6;strokeWidth=0.5;" edge="1" parent="IENv7uMUIxUcSmXRV36D-61">
          <mxGeometry width="50" height="50" relative="1" as="geometry">
            <mxPoint y="3" as="sourcePoint" />
            <mxPoint x="3" as="targetPoint" />
          </mxGeometry>
        </mxCell>
        <mxCell id="IENv7uMUIxUcSmXRV36D-63" value="" style="endArrow=none;html=1;rounded=0;jumpSize=6;strokeWidth=0.5;" edge="1" parent="IENv7uMUIxUcSmXRV36D-61">
          <mxGeometry width="50" height="50" relative="1" as="geometry">
            <mxPoint x="3" y="3" as="sourcePoint" />
            <mxPoint as="targetPoint" />
          </mxGeometry>
        </mxCell>
        <mxCell id="IENv7uMUIxUcSmXRV36D-64" value="" style="group;strokeWidth=0.5;" vertex="1" connectable="0" parent="1">
          <mxGeometry x="333" y="190" width="3" height="3" as="geometry" />
        </mxCell>
        <mxCell id="IENv7uMUIxUcSmXRV36D-65" value="" style="endArrow=none;html=1;rounded=0;jumpSize=6;strokeWidth=0.5;" edge="1" parent="IENv7uMUIxUcSmXRV36D-64">
          <mxGeometry width="50" height="50" relative="1" as="geometry">
            <mxPoint y="3" as="sourcePoint" />
            <mxPoint x="3" as="targetPoint" />
          </mxGeometry>
        </mxCell>
        <mxCell id="IENv7uMUIxUcSmXRV36D-66" value="" style="endArrow=none;html=1;rounded=0;jumpSize=6;strokeWidth=0.5;" edge="1" parent="IENv7uMUIxUcSmXRV36D-64">
          <mxGeometry width="50" height="50" relative="1" as="geometry">
            <mxPoint x="3" y="3" as="sourcePoint" />
            <mxPoint as="targetPoint" />
          </mxGeometry>
        </mxCell>
        <mxCell id="IENv7uMUIxUcSmXRV36D-67" value="" style="group;strokeWidth=0.5;" vertex="1" connectable="0" parent="1">
          <mxGeometry x="334" y="210" width="3" height="3" as="geometry" />
        </mxCell>
        <mxCell id="IENv7uMUIxUcSmXRV36D-68" value="" style="endArrow=none;html=1;rounded=0;jumpSize=6;strokeWidth=0.5;" edge="1" parent="IENv7uMUIxUcSmXRV36D-67">
          <mxGeometry width="50" height="50" relative="1" as="geometry">
            <mxPoint y="3" as="sourcePoint" />
            <mxPoint x="3" as="targetPoint" />
          </mxGeometry>
        </mxCell>
        <mxCell id="IENv7uMUIxUcSmXRV36D-69" value="" style="endArrow=none;html=1;rounded=0;jumpSize=6;strokeWidth=0.5;" edge="1" parent="IENv7uMUIxUcSmXRV36D-67">
          <mxGeometry width="50" height="50" relative="1" as="geometry">
            <mxPoint x="3" y="3" as="sourcePoint" />
            <mxPoint as="targetPoint" />
          </mxGeometry>
        </mxCell>
        <mxCell id="IENv7uMUIxUcSmXRV36D-70" value="" style="group;strokeWidth=0.5;" vertex="1" connectable="0" parent="1">
          <mxGeometry x="283" y="204" width="3" height="3" as="geometry" />
        </mxCell>
        <mxCell id="IENv7uMUIxUcSmXRV36D-71" value="" style="endArrow=none;html=1;rounded=0;jumpSize=6;strokeWidth=0.5;" edge="1" parent="IENv7uMUIxUcSmXRV36D-70">
          <mxGeometry width="50" height="50" relative="1" as="geometry">
            <mxPoint y="3" as="sourcePoint" />
            <mxPoint x="3" as="targetPoint" />
          </mxGeometry>
        </mxCell>
        <mxCell id="IENv7uMUIxUcSmXRV36D-72" value="" style="endArrow=none;html=1;rounded=0;jumpSize=6;strokeWidth=0.5;" edge="1" parent="IENv7uMUIxUcSmXRV36D-70">
          <mxGeometry width="50" height="50" relative="1" as="geometry">
            <mxPoint x="3" y="3" as="sourcePoint" />
            <mxPoint as="targetPoint" />
          </mxGeometry>
        </mxCell>
        <mxCell id="IENv7uMUIxUcSmXRV36D-73" value="" style="group;strokeWidth=0.5;" vertex="1" connectable="0" parent="1">
          <mxGeometry x="320" y="183" width="3" height="3" as="geometry" />
        </mxCell>
        <mxCell id="IENv7uMUIxUcSmXRV36D-74" value="" style="endArrow=none;html=1;rounded=0;jumpSize=6;strokeWidth=0.5;" edge="1" parent="IENv7uMUIxUcSmXRV36D-73">
          <mxGeometry width="50" height="50" relative="1" as="geometry">
            <mxPoint y="3" as="sourcePoint" />
            <mxPoint x="3" as="targetPoint" />
          </mxGeometry>
        </mxCell>
        <mxCell id="IENv7uMUIxUcSmXRV36D-75" value="" style="endArrow=none;html=1;rounded=0;jumpSize=6;strokeWidth=0.5;" edge="1" parent="IENv7uMUIxUcSmXRV36D-73">
          <mxGeometry width="50" height="50" relative="1" as="geometry">
            <mxPoint x="3" y="3" as="sourcePoint" />
            <mxPoint as="targetPoint" />
          </mxGeometry>
        </mxCell>
        <mxCell id="IENv7uMUIxUcSmXRV36D-76" value="" style="group;strokeWidth=0.5;" vertex="1" connectable="0" parent="1">
          <mxGeometry x="293" y="171" width="3" height="3" as="geometry" />
        </mxCell>
        <mxCell id="IENv7uMUIxUcSmXRV36D-77" value="" style="endArrow=none;html=1;rounded=0;jumpSize=6;strokeWidth=0.5;" edge="1" parent="IENv7uMUIxUcSmXRV36D-76">
          <mxGeometry width="50" height="50" relative="1" as="geometry">
            <mxPoint y="3" as="sourcePoint" />
            <mxPoint x="3" as="targetPoint" />
          </mxGeometry>
        </mxCell>
        <mxCell id="IENv7uMUIxUcSmXRV36D-78" value="" style="endArrow=none;html=1;rounded=0;jumpSize=6;strokeWidth=0.5;" edge="1" parent="IENv7uMUIxUcSmXRV36D-76">
          <mxGeometry width="50" height="50" relative="1" as="geometry">
            <mxPoint x="3" y="3" as="sourcePoint" />
            <mxPoint as="targetPoint" />
          </mxGeometry>
        </mxCell>
        <mxCell id="IENv7uMUIxUcSmXRV36D-79" value="" style="group;strokeWidth=0.5;" vertex="1" connectable="0" parent="1">
          <mxGeometry x="301" y="200" width="3" height="3" as="geometry" />
        </mxCell>
        <mxCell id="IENv7uMUIxUcSmXRV36D-80" value="" style="endArrow=none;html=1;rounded=0;jumpSize=6;strokeWidth=0.5;" edge="1" parent="IENv7uMUIxUcSmXRV36D-79">
          <mxGeometry width="50" height="50" relative="1" as="geometry">
            <mxPoint y="3" as="sourcePoint" />
            <mxPoint x="3" as="targetPoint" />
          </mxGeometry>
        </mxCell>
        <mxCell id="IENv7uMUIxUcSmXRV36D-81" value="" style="endArrow=none;html=1;rounded=0;jumpSize=6;strokeWidth=0.5;" edge="1" parent="IENv7uMUIxUcSmXRV36D-79">
          <mxGeometry width="50" height="50" relative="1" as="geometry">
            <mxPoint x="3" y="3" as="sourcePoint" />
            <mxPoint as="targetPoint" />
          </mxGeometry>
        </mxCell>
        <mxCell id="IENv7uMUIxUcSmXRV36D-82" value="" style="group;strokeWidth=0.5;" vertex="1" connectable="0" parent="1">
          <mxGeometry x="288" y="190" width="3" height="3" as="geometry" />
        </mxCell>
        <mxCell id="IENv7uMUIxUcSmXRV36D-83" value="" style="endArrow=none;html=1;rounded=0;jumpSize=6;strokeWidth=0.5;" edge="1" parent="IENv7uMUIxUcSmXRV36D-82">
          <mxGeometry width="50" height="50" relative="1" as="geometry">
            <mxPoint y="3" as="sourcePoint" />
            <mxPoint x="3" as="targetPoint" />
          </mxGeometry>
        </mxCell>
        <mxCell id="IENv7uMUIxUcSmXRV36D-84" value="" style="endArrow=none;html=1;rounded=0;jumpSize=6;strokeWidth=0.5;" edge="1" parent="IENv7uMUIxUcSmXRV36D-82">
          <mxGeometry width="50" height="50" relative="1" as="geometry">
            <mxPoint x="3" y="3" as="sourcePoint" />
            <mxPoint as="targetPoint" />
          </mxGeometry>
        </mxCell>
        <mxCell id="IENv7uMUIxUcSmXRV36D-85" value="" style="endArrow=classic;html=1;rounded=0;strokeWidth=1;endSize=1;jumpSize=10;arcSize=20;jumpStyle=none;startSize=5;sourcePerimeterSpacing=0;" edge="1" parent="1">
          <mxGeometry width="50" height="50" relative="1" as="geometry">
            <mxPoint x="270" y="460" as="sourcePoint" />
            <mxPoint x="270" y="360" as="targetPoint" />
          </mxGeometry>
        </mxCell>
        <mxCell id="IENv7uMUIxUcSmXRV36D-86" value="" style="endArrow=classic;html=1;rounded=0;strokeWidth=1;endSize=1;jumpSize=10;arcSize=20;jumpStyle=none;startSize=5;sourcePerimeterSpacing=0;" edge="1" parent="1">
          <mxGeometry width="50" height="50" relative="1" as="geometry">
            <mxPoint x="269.5" y="460" as="sourcePoint" />
            <mxPoint x="380" y="460" as="targetPoint" />
          </mxGeometry>
        </mxCell>
        <mxCell id="IENv7uMUIxUcSmXRV36D-87" value="$$y$$" style="text;html=1;strokeColor=none;fillColor=none;align=center;verticalAlign=middle;whiteSpace=wrap;rounded=0;" vertex="1" parent="1">
          <mxGeometry x="260.5" y="344" width="20" height="14" as="geometry" />
        </mxCell>
        <mxCell id="IENv7uMUIxUcSmXRV36D-88" value="$$x$$" style="text;html=1;strokeColor=none;fillColor=none;align=center;verticalAlign=middle;whiteSpace=wrap;rounded=0;" vertex="1" parent="1">
          <mxGeometry x="378" y="450" width="20" height="14" as="geometry" />
        </mxCell>
        <mxCell id="IENv7uMUIxUcSmXRV36D-89" value="" style="ellipse;whiteSpace=wrap;html=1;fontFamily=Helvetica;fontSize=11;rotation=15;strokeWidth=0.5;fillColor=none;strokeColor=#6c8ebf;" vertex="1" parent="1">
          <mxGeometry x="280" y="380" width="90" height="60" as="geometry" />
        </mxCell>
        <mxCell id="IENv7uMUIxUcSmXRV36D-90" value="" style="group;strokeWidth=0.5;" vertex="1" connectable="0" parent="1">
          <mxGeometry x="314" y="377" width="3" height="3" as="geometry" />
        </mxCell>
        <mxCell id="IENv7uMUIxUcSmXRV36D-91" value="" style="endArrow=none;html=1;rounded=0;jumpSize=6;strokeWidth=0.5;" edge="1" parent="IENv7uMUIxUcSmXRV36D-90">
          <mxGeometry width="50" height="50" relative="1" as="geometry">
            <mxPoint y="3" as="sourcePoint" />
            <mxPoint x="3" as="targetPoint" />
          </mxGeometry>
        </mxCell>
        <mxCell id="IENv7uMUIxUcSmXRV36D-92" value="" style="endArrow=none;html=1;rounded=0;jumpSize=6;strokeWidth=0.5;" edge="1" parent="IENv7uMUIxUcSmXRV36D-90">
          <mxGeometry width="50" height="50" relative="1" as="geometry">
            <mxPoint x="3" y="3" as="sourcePoint" />
            <mxPoint as="targetPoint" />
          </mxGeometry>
        </mxCell>
        <mxCell id="IENv7uMUIxUcSmXRV36D-93" value="" style="endArrow=none;dashed=1;html=1;rounded=0;labelBackgroundColor=default;strokeColor=default;strokeWidth=0.5;fontFamily=Helvetica;fontSize=11;fontColor=default;startSize=5;endSize=1;shape=connector;jumpSize=8;dashPattern=1 4;" edge="1" parent="1">
          <mxGeometry width="50" height="50" relative="1" as="geometry">
            <mxPoint x="270" y="378.5" as="sourcePoint" />
            <mxPoint x="316" y="378.5" as="targetPoint" />
          </mxGeometry>
        </mxCell>
        <mxCell id="IENv7uMUIxUcSmXRV36D-94" value="$$90$$" style="text;html=1;strokeColor=none;fillColor=none;align=center;verticalAlign=middle;whiteSpace=wrap;rounded=0;" vertex="1" parent="1">
          <mxGeometry x="249" y="371.5" width="20" height="14" as="geometry" />
        </mxCell>
        <mxCell id="IENv7uMUIxUcSmXRV36D-95" value="" style="group;strokeWidth=0.5;" vertex="1" connectable="0" parent="1">
          <mxGeometry x="330" y="440" width="3" height="3" as="geometry" />
        </mxCell>
        <mxCell id="IENv7uMUIxUcSmXRV36D-96" value="" style="endArrow=none;html=1;rounded=0;jumpSize=6;strokeWidth=0.5;" edge="1" parent="IENv7uMUIxUcSmXRV36D-95">
          <mxGeometry width="50" height="50" relative="1" as="geometry">
            <mxPoint y="3" as="sourcePoint" />
            <mxPoint x="3" as="targetPoint" />
          </mxGeometry>
        </mxCell>
        <mxCell id="IENv7uMUIxUcSmXRV36D-97" value="" style="endArrow=none;html=1;rounded=0;jumpSize=6;strokeWidth=0.5;" edge="1" parent="IENv7uMUIxUcSmXRV36D-95">
          <mxGeometry width="50" height="50" relative="1" as="geometry">
            <mxPoint x="3" y="3" as="sourcePoint" />
            <mxPoint as="targetPoint" />
          </mxGeometry>
        </mxCell>
        <mxCell id="IENv7uMUIxUcSmXRV36D-98" value="" style="group;strokeWidth=0.5;" vertex="1" connectable="0" parent="1">
          <mxGeometry x="279" y="400" width="3" height="3" as="geometry" />
        </mxCell>
        <mxCell id="IENv7uMUIxUcSmXRV36D-99" value="" style="endArrow=none;html=1;rounded=0;jumpSize=6;strokeWidth=0.5;" edge="1" parent="IENv7uMUIxUcSmXRV36D-98">
          <mxGeometry width="50" height="50" relative="1" as="geometry">
            <mxPoint y="3" as="sourcePoint" />
            <mxPoint x="3" as="targetPoint" />
          </mxGeometry>
        </mxCell>
        <mxCell id="IENv7uMUIxUcSmXRV36D-100" value="" style="endArrow=none;html=1;rounded=0;jumpSize=6;strokeWidth=0.5;" edge="1" parent="IENv7uMUIxUcSmXRV36D-98">
          <mxGeometry width="50" height="50" relative="1" as="geometry">
            <mxPoint x="3" y="3" as="sourcePoint" />
            <mxPoint as="targetPoint" />
          </mxGeometry>
        </mxCell>
        <mxCell id="IENv7uMUIxUcSmXRV36D-101" value="" style="group;strokeWidth=0.5;" vertex="1" connectable="0" parent="1">
          <mxGeometry x="368" y="415" width="3" height="3" as="geometry" />
        </mxCell>
        <mxCell id="IENv7uMUIxUcSmXRV36D-102" value="" style="endArrow=none;html=1;rounded=0;jumpSize=6;strokeWidth=0.5;" edge="1" parent="IENv7uMUIxUcSmXRV36D-101">
          <mxGeometry width="50" height="50" relative="1" as="geometry">
            <mxPoint y="3" as="sourcePoint" />
            <mxPoint x="3" as="targetPoint" />
          </mxGeometry>
        </mxCell>
        <mxCell id="IENv7uMUIxUcSmXRV36D-103" value="" style="endArrow=none;html=1;rounded=0;jumpSize=6;strokeWidth=0.5;" edge="1" parent="IENv7uMUIxUcSmXRV36D-101">
          <mxGeometry width="50" height="50" relative="1" as="geometry">
            <mxPoint x="3" y="3" as="sourcePoint" />
            <mxPoint as="targetPoint" />
          </mxGeometry>
        </mxCell>
        <mxCell id="IENv7uMUIxUcSmXRV36D-105" value="" style="group;strokeWidth=0.5;" vertex="1" connectable="0" parent="1">
          <mxGeometry x="333" y="417" width="3" height="3" as="geometry" />
        </mxCell>
        <mxCell id="IENv7uMUIxUcSmXRV36D-106" value="" style="endArrow=none;html=1;rounded=0;jumpSize=6;strokeWidth=0.5;" edge="1" parent="IENv7uMUIxUcSmXRV36D-105">
          <mxGeometry width="50" height="50" relative="1" as="geometry">
            <mxPoint y="3" as="sourcePoint" />
            <mxPoint x="3" as="targetPoint" />
          </mxGeometry>
        </mxCell>
        <mxCell id="IENv7uMUIxUcSmXRV36D-107" value="" style="endArrow=none;html=1;rounded=0;jumpSize=6;strokeWidth=0.5;" edge="1" parent="IENv7uMUIxUcSmXRV36D-105">
          <mxGeometry width="50" height="50" relative="1" as="geometry">
            <mxPoint x="3" y="3" as="sourcePoint" />
            <mxPoint as="targetPoint" />
          </mxGeometry>
        </mxCell>
        <mxCell id="IENv7uMUIxUcSmXRV36D-108" value="" style="group;strokeWidth=0.5;" vertex="1" connectable="0" parent="1">
          <mxGeometry x="327" y="390.34000000000003" width="3" height="3" as="geometry" />
        </mxCell>
        <mxCell id="IENv7uMUIxUcSmXRV36D-109" value="" style="endArrow=none;html=1;rounded=0;jumpSize=6;strokeWidth=0.5;" edge="1" parent="IENv7uMUIxUcSmXRV36D-108">
          <mxGeometry width="50" height="50" relative="1" as="geometry">
            <mxPoint y="3" as="sourcePoint" />
            <mxPoint x="3" as="targetPoint" />
          </mxGeometry>
        </mxCell>
        <mxCell id="IENv7uMUIxUcSmXRV36D-110" value="" style="endArrow=none;html=1;rounded=0;jumpSize=6;strokeWidth=0.5;" edge="1" parent="IENv7uMUIxUcSmXRV36D-108">
          <mxGeometry width="50" height="50" relative="1" as="geometry">
            <mxPoint x="3" y="3" as="sourcePoint" />
            <mxPoint as="targetPoint" />
          </mxGeometry>
        </mxCell>
        <mxCell id="IENv7uMUIxUcSmXRV36D-111" value="" style="group;strokeWidth=0.5;" vertex="1" connectable="0" parent="1">
          <mxGeometry x="350" y="405.34000000000003" width="3" height="3" as="geometry" />
        </mxCell>
        <mxCell id="IENv7uMUIxUcSmXRV36D-112" value="" style="endArrow=none;html=1;rounded=0;jumpSize=6;strokeWidth=0.5;" edge="1" parent="IENv7uMUIxUcSmXRV36D-111">
          <mxGeometry width="50" height="50" relative="1" as="geometry">
            <mxPoint y="3" as="sourcePoint" />
            <mxPoint x="3" as="targetPoint" />
          </mxGeometry>
        </mxCell>
        <mxCell id="IENv7uMUIxUcSmXRV36D-113" value="" style="endArrow=none;html=1;rounded=0;jumpSize=6;strokeWidth=0.5;" edge="1" parent="IENv7uMUIxUcSmXRV36D-111">
          <mxGeometry width="50" height="50" relative="1" as="geometry">
            <mxPoint x="3" y="3" as="sourcePoint" />
            <mxPoint as="targetPoint" />
          </mxGeometry>
        </mxCell>
        <mxCell id="IENv7uMUIxUcSmXRV36D-114" value="" style="group;strokeWidth=0.5;" vertex="1" connectable="0" parent="1">
          <mxGeometry x="310" y="401" width="3" height="3" as="geometry" />
        </mxCell>
        <mxCell id="IENv7uMUIxUcSmXRV36D-115" value="" style="endArrow=none;html=1;rounded=0;jumpSize=6;strokeWidth=0.5;" edge="1" parent="IENv7uMUIxUcSmXRV36D-114">
          <mxGeometry width="50" height="50" relative="1" as="geometry">
            <mxPoint y="3" as="sourcePoint" />
            <mxPoint x="3" as="targetPoint" />
          </mxGeometry>
        </mxCell>
        <mxCell id="IENv7uMUIxUcSmXRV36D-116" value="" style="endArrow=none;html=1;rounded=0;jumpSize=6;strokeWidth=0.5;" edge="1" parent="IENv7uMUIxUcSmXRV36D-114">
          <mxGeometry width="50" height="50" relative="1" as="geometry">
            <mxPoint x="3" y="3" as="sourcePoint" />
            <mxPoint as="targetPoint" />
          </mxGeometry>
        </mxCell>
        <mxCell id="IENv7uMUIxUcSmXRV36D-117" value="" style="group;strokeWidth=0.5;" vertex="1" connectable="0" parent="1">
          <mxGeometry x="318" y="407" width="3" height="3" as="geometry" />
        </mxCell>
        <mxCell id="IENv7uMUIxUcSmXRV36D-118" value="" style="endArrow=none;html=1;rounded=0;jumpSize=6;strokeWidth=0.5;" edge="1" parent="IENv7uMUIxUcSmXRV36D-117">
          <mxGeometry width="50" height="50" relative="1" as="geometry">
            <mxPoint y="3" as="sourcePoint" />
            <mxPoint x="3" as="targetPoint" />
          </mxGeometry>
        </mxCell>
        <mxCell id="IENv7uMUIxUcSmXRV36D-119" value="" style="endArrow=none;html=1;rounded=0;jumpSize=6;strokeWidth=0.5;" edge="1" parent="IENv7uMUIxUcSmXRV36D-117">
          <mxGeometry width="50" height="50" relative="1" as="geometry">
            <mxPoint x="3" y="3" as="sourcePoint" />
            <mxPoint as="targetPoint" />
          </mxGeometry>
        </mxCell>
        <mxCell id="IENv7uMUIxUcSmXRV36D-120" value="" style="group;strokeWidth=0.5;" vertex="1" connectable="0" parent="1">
          <mxGeometry x="343" y="410" width="3" height="3" as="geometry" />
        </mxCell>
        <mxCell id="IENv7uMUIxUcSmXRV36D-121" value="" style="endArrow=none;html=1;rounded=0;jumpSize=6;strokeWidth=0.5;" edge="1" parent="IENv7uMUIxUcSmXRV36D-120">
          <mxGeometry width="50" height="50" relative="1" as="geometry">
            <mxPoint y="3" as="sourcePoint" />
            <mxPoint x="3" as="targetPoint" />
          </mxGeometry>
        </mxCell>
        <mxCell id="IENv7uMUIxUcSmXRV36D-122" value="" style="endArrow=none;html=1;rounded=0;jumpSize=6;strokeWidth=0.5;" edge="1" parent="IENv7uMUIxUcSmXRV36D-120">
          <mxGeometry width="50" height="50" relative="1" as="geometry">
            <mxPoint x="3" y="3" as="sourcePoint" />
            <mxPoint as="targetPoint" />
          </mxGeometry>
        </mxCell>
        <mxCell id="IENv7uMUIxUcSmXRV36D-123" value="" style="group;strokeWidth=0.5;" vertex="1" connectable="0" parent="1">
          <mxGeometry x="344" y="430" width="3" height="3" as="geometry" />
        </mxCell>
        <mxCell id="IENv7uMUIxUcSmXRV36D-124" value="" style="endArrow=none;html=1;rounded=0;jumpSize=6;strokeWidth=0.5;" edge="1" parent="IENv7uMUIxUcSmXRV36D-123">
          <mxGeometry width="50" height="50" relative="1" as="geometry">
            <mxPoint y="3" as="sourcePoint" />
            <mxPoint x="3" as="targetPoint" />
          </mxGeometry>
        </mxCell>
        <mxCell id="IENv7uMUIxUcSmXRV36D-125" value="" style="endArrow=none;html=1;rounded=0;jumpSize=6;strokeWidth=0.5;" edge="1" parent="IENv7uMUIxUcSmXRV36D-123">
          <mxGeometry width="50" height="50" relative="1" as="geometry">
            <mxPoint x="3" y="3" as="sourcePoint" />
            <mxPoint as="targetPoint" />
          </mxGeometry>
        </mxCell>
        <mxCell id="IENv7uMUIxUcSmXRV36D-126" value="" style="group;strokeWidth=0.5;" vertex="1" connectable="0" parent="1">
          <mxGeometry x="293" y="424" width="3" height="3" as="geometry" />
        </mxCell>
        <mxCell id="IENv7uMUIxUcSmXRV36D-127" value="" style="endArrow=none;html=1;rounded=0;jumpSize=6;strokeWidth=0.5;" edge="1" parent="IENv7uMUIxUcSmXRV36D-126">
          <mxGeometry width="50" height="50" relative="1" as="geometry">
            <mxPoint y="3" as="sourcePoint" />
            <mxPoint x="3" as="targetPoint" />
          </mxGeometry>
        </mxCell>
        <mxCell id="IENv7uMUIxUcSmXRV36D-128" value="" style="endArrow=none;html=1;rounded=0;jumpSize=6;strokeWidth=0.5;" edge="1" parent="IENv7uMUIxUcSmXRV36D-126">
          <mxGeometry width="50" height="50" relative="1" as="geometry">
            <mxPoint x="3" y="3" as="sourcePoint" />
            <mxPoint as="targetPoint" />
          </mxGeometry>
        </mxCell>
        <mxCell id="IENv7uMUIxUcSmXRV36D-129" value="" style="group;strokeWidth=0.5;" vertex="1" connectable="0" parent="1">
          <mxGeometry x="330" y="403" width="3" height="3" as="geometry" />
        </mxCell>
        <mxCell id="IENv7uMUIxUcSmXRV36D-130" value="" style="endArrow=none;html=1;rounded=0;jumpSize=6;strokeWidth=0.5;" edge="1" parent="IENv7uMUIxUcSmXRV36D-129">
          <mxGeometry width="50" height="50" relative="1" as="geometry">
            <mxPoint y="3" as="sourcePoint" />
            <mxPoint x="3" as="targetPoint" />
          </mxGeometry>
        </mxCell>
        <mxCell id="IENv7uMUIxUcSmXRV36D-131" value="" style="endArrow=none;html=1;rounded=0;jumpSize=6;strokeWidth=0.5;" edge="1" parent="IENv7uMUIxUcSmXRV36D-129">
          <mxGeometry width="50" height="50" relative="1" as="geometry">
            <mxPoint x="3" y="3" as="sourcePoint" />
            <mxPoint as="targetPoint" />
          </mxGeometry>
        </mxCell>
        <mxCell id="IENv7uMUIxUcSmXRV36D-132" value="" style="group;strokeWidth=0.5;" vertex="1" connectable="0" parent="1">
          <mxGeometry x="303" y="391" width="3" height="3" as="geometry" />
        </mxCell>
        <mxCell id="IENv7uMUIxUcSmXRV36D-133" value="" style="endArrow=none;html=1;rounded=0;jumpSize=6;strokeWidth=0.5;" edge="1" parent="IENv7uMUIxUcSmXRV36D-132">
          <mxGeometry width="50" height="50" relative="1" as="geometry">
            <mxPoint y="3" as="sourcePoint" />
            <mxPoint x="3" as="targetPoint" />
          </mxGeometry>
        </mxCell>
        <mxCell id="IENv7uMUIxUcSmXRV36D-134" value="" style="endArrow=none;html=1;rounded=0;jumpSize=6;strokeWidth=0.5;" edge="1" parent="IENv7uMUIxUcSmXRV36D-132">
          <mxGeometry width="50" height="50" relative="1" as="geometry">
            <mxPoint x="3" y="3" as="sourcePoint" />
            <mxPoint as="targetPoint" />
          </mxGeometry>
        </mxCell>
        <mxCell id="IENv7uMUIxUcSmXRV36D-135" value="" style="group;strokeWidth=0.5;" vertex="1" connectable="0" parent="1">
          <mxGeometry x="311" y="420" width="3" height="3" as="geometry" />
        </mxCell>
        <mxCell id="IENv7uMUIxUcSmXRV36D-136" value="" style="endArrow=none;html=1;rounded=0;jumpSize=6;strokeWidth=0.5;" edge="1" parent="IENv7uMUIxUcSmXRV36D-135">
          <mxGeometry width="50" height="50" relative="1" as="geometry">
            <mxPoint y="3" as="sourcePoint" />
            <mxPoint x="3" as="targetPoint" />
          </mxGeometry>
        </mxCell>
        <mxCell id="IENv7uMUIxUcSmXRV36D-137" value="" style="endArrow=none;html=1;rounded=0;jumpSize=6;strokeWidth=0.5;" edge="1" parent="IENv7uMUIxUcSmXRV36D-135">
          <mxGeometry width="50" height="50" relative="1" as="geometry">
            <mxPoint x="3" y="3" as="sourcePoint" />
            <mxPoint as="targetPoint" />
          </mxGeometry>
        </mxCell>
        <mxCell id="IENv7uMUIxUcSmXRV36D-138" value="" style="group;strokeWidth=0.5;" vertex="1" connectable="0" parent="1">
          <mxGeometry x="298" y="410" width="3" height="3" as="geometry" />
        </mxCell>
        <mxCell id="IENv7uMUIxUcSmXRV36D-139" value="" style="endArrow=none;html=1;rounded=0;jumpSize=6;strokeWidth=0.5;" edge="1" parent="IENv7uMUIxUcSmXRV36D-138">
          <mxGeometry width="50" height="50" relative="1" as="geometry">
            <mxPoint y="3" as="sourcePoint" />
            <mxPoint x="3" as="targetPoint" />
          </mxGeometry>
        </mxCell>
        <mxCell id="IENv7uMUIxUcSmXRV36D-140" value="" style="endArrow=none;html=1;rounded=0;jumpSize=6;strokeWidth=0.5;" edge="1" parent="IENv7uMUIxUcSmXRV36D-138">
          <mxGeometry width="50" height="50" relative="1" as="geometry">
            <mxPoint x="3" y="3" as="sourcePoint" />
            <mxPoint as="targetPoint" />
          </mxGeometry>
        </mxCell>
        <mxCell id="IENv7uMUIxUcSmXRV36D-141" value="" style="endArrow=none;dashed=1;html=1;rounded=0;labelBackgroundColor=default;strokeColor=default;strokeWidth=0.5;fontFamily=Helvetica;fontSize=11;fontColor=default;startSize=5;endSize=1;shape=connector;jumpSize=8;dashPattern=1 4;" edge="1" parent="1">
          <mxGeometry width="50" height="50" relative="1" as="geometry">
            <mxPoint x="270" y="441.5" as="sourcePoint" />
            <mxPoint x="331" y="441.5" as="targetPoint" />
          </mxGeometry>
        </mxCell>
        <mxCell id="IENv7uMUIxUcSmXRV36D-142" value="$$2$$" style="text;html=1;strokeColor=none;fillColor=none;align=center;verticalAlign=middle;whiteSpace=wrap;rounded=0;" vertex="1" parent="1">
          <mxGeometry x="252" y="434.5" width="20" height="14" as="geometry" />
        </mxCell>
        <mxCell id="IENv7uMUIxUcSmXRV36D-143" value="" style="endArrow=none;dashed=1;html=1;rounded=0;labelBackgroundColor=default;strokeColor=default;strokeWidth=0.5;fontFamily=Helvetica;fontSize=11;fontColor=default;startSize=5;endSize=1;shape=connector;jumpSize=8;dashPattern=1 4;" edge="1" parent="1">
          <mxGeometry width="50" height="50" relative="1" as="geometry">
            <mxPoint x="280" y="459" as="sourcePoint" />
            <mxPoint x="280" y="401" as="targetPoint" />
          </mxGeometry>
        </mxCell>
        <mxCell id="IENv7uMUIxUcSmXRV36D-144" value="$$1$$" style="text;html=1;strokeColor=none;fillColor=none;align=center;verticalAlign=middle;whiteSpace=wrap;rounded=0;" vertex="1" parent="1">
          <mxGeometry x="270" y="460" width="20" height="14" as="geometry" />
        </mxCell>
        <mxCell id="IENv7uMUIxUcSmXRV36D-145" value="" style="endArrow=none;dashed=1;html=1;rounded=0;labelBackgroundColor=default;strokeColor=default;strokeWidth=0.5;fontFamily=Helvetica;fontSize=11;fontColor=default;startSize=5;endSize=1;shape=connector;jumpSize=8;dashPattern=1 4;" edge="1" parent="1">
          <mxGeometry width="50" height="50" relative="1" as="geometry">
            <mxPoint x="369.72" y="459" as="sourcePoint" />
            <mxPoint x="369.72" y="416" as="targetPoint" />
          </mxGeometry>
        </mxCell>
        <mxCell id="IENv7uMUIxUcSmXRV36D-146" value="$$99$$" style="text;html=1;strokeColor=none;fillColor=none;align=center;verticalAlign=middle;whiteSpace=wrap;rounded=0;" vertex="1" parent="1">
          <mxGeometry x="358" y="460" width="20" height="14" as="geometry" />
        </mxCell>
        <mxCell id="UB4O4ha0MIYpwrMY1wqc-1" value="$$\{x:[1,99],y:[2,90]\}$$" style="text;html=1;strokeColor=none;fillColor=none;align=center;verticalAlign=middle;whiteSpace=wrap;rounded=0;" vertex="1" parent="1">
          <mxGeometry x="450" y="403" width="130" height="10" as="geometry" />
        </mxCell>
        <mxCell id="UB4O4ha0MIYpwrMY1wqc-2" value="" style="endArrow=classic;html=1;rounded=0;strokeWidth=1;endSize=1;jumpSize=10;arcSize=20;jumpStyle=none;startSize=5;sourcePerimeterSpacing=0;" edge="1" parent="1">
          <mxGeometry width="50" height="50" relative="1" as="geometry">
            <mxPoint x="281" y="656" as="sourcePoint" />
            <mxPoint x="281" y="556" as="targetPoint" />
          </mxGeometry>
        </mxCell>
        <mxCell id="UB4O4ha0MIYpwrMY1wqc-3" value="" style="endArrow=classic;html=1;rounded=0;strokeWidth=1;endSize=1;jumpSize=10;arcSize=20;jumpStyle=none;startSize=5;sourcePerimeterSpacing=0;" edge="1" parent="1">
          <mxGeometry width="50" height="50" relative="1" as="geometry">
            <mxPoint x="280.5" y="656" as="sourcePoint" />
            <mxPoint x="391" y="656" as="targetPoint" />
          </mxGeometry>
        </mxCell>
        <mxCell id="UB4O4ha0MIYpwrMY1wqc-4" value="$$y$$" style="text;html=1;strokeColor=none;fillColor=none;align=center;verticalAlign=middle;whiteSpace=wrap;rounded=0;" vertex="1" parent="1">
          <mxGeometry x="271.5" y="540" width="20" height="14" as="geometry" />
        </mxCell>
        <mxCell id="UB4O4ha0MIYpwrMY1wqc-5" value="$$x$$" style="text;html=1;strokeColor=none;fillColor=none;align=center;verticalAlign=middle;whiteSpace=wrap;rounded=0;" vertex="1" parent="1">
          <mxGeometry x="389" y="646" width="20" height="14" as="geometry" />
        </mxCell>
        <mxCell id="UB4O4ha0MIYpwrMY1wqc-6" value="" style="ellipse;whiteSpace=wrap;html=1;fontFamily=Helvetica;fontSize=11;rotation=15;strokeWidth=0.5;fillColor=none;strokeColor=#6c8ebf;" vertex="1" parent="1">
          <mxGeometry x="291" y="576" width="90" height="60" as="geometry" />
        </mxCell>
        <mxCell id="UB4O4ha0MIYpwrMY1wqc-7" value="" style="group;strokeWidth=0.5;" vertex="1" connectable="0" parent="1">
          <mxGeometry x="325" y="573" width="3" height="3" as="geometry" />
        </mxCell>
        <mxCell id="UB4O4ha0MIYpwrMY1wqc-8" value="" style="endArrow=none;html=1;rounded=0;jumpSize=6;strokeWidth=0.5;" edge="1" parent="UB4O4ha0MIYpwrMY1wqc-7">
          <mxGeometry width="50" height="50" relative="1" as="geometry">
            <mxPoint y="3" as="sourcePoint" />
            <mxPoint x="3" as="targetPoint" />
          </mxGeometry>
        </mxCell>
        <mxCell id="UB4O4ha0MIYpwrMY1wqc-9" value="" style="endArrow=none;html=1;rounded=0;jumpSize=6;strokeWidth=0.5;" edge="1" parent="UB4O4ha0MIYpwrMY1wqc-7">
          <mxGeometry width="50" height="50" relative="1" as="geometry">
            <mxPoint x="3" y="3" as="sourcePoint" />
            <mxPoint as="targetPoint" />
          </mxGeometry>
        </mxCell>
        <mxCell id="UB4O4ha0MIYpwrMY1wqc-10" value="" style="endArrow=none;dashed=1;html=1;rounded=0;labelBackgroundColor=default;strokeColor=default;strokeWidth=0.5;fontFamily=Helvetica;fontSize=11;fontColor=default;startSize=5;endSize=1;shape=connector;jumpSize=8;dashPattern=1 4;" edge="1" parent="1">
          <mxGeometry width="50" height="50" relative="1" as="geometry">
            <mxPoint x="281" y="574.5" as="sourcePoint" />
            <mxPoint x="327" y="574.5" as="targetPoint" />
          </mxGeometry>
        </mxCell>
        <mxCell id="UB4O4ha0MIYpwrMY1wqc-11" value="$$90$$" style="text;html=1;strokeColor=none;fillColor=none;align=center;verticalAlign=middle;whiteSpace=wrap;rounded=0;" vertex="1" parent="1">
          <mxGeometry x="260" y="567.5" width="20" height="14" as="geometry" />
        </mxCell>
        <mxCell id="UB4O4ha0MIYpwrMY1wqc-12" value="" style="group;strokeWidth=0.5;" vertex="1" connectable="0" parent="1">
          <mxGeometry x="341" y="636" width="3" height="3" as="geometry" />
        </mxCell>
        <mxCell id="UB4O4ha0MIYpwrMY1wqc-13" value="" style="endArrow=none;html=1;rounded=0;jumpSize=6;strokeWidth=0.5;" edge="1" parent="UB4O4ha0MIYpwrMY1wqc-12">
          <mxGeometry width="50" height="50" relative="1" as="geometry">
            <mxPoint y="3" as="sourcePoint" />
            <mxPoint x="3" as="targetPoint" />
          </mxGeometry>
        </mxCell>
        <mxCell id="UB4O4ha0MIYpwrMY1wqc-14" value="" style="endArrow=none;html=1;rounded=0;jumpSize=6;strokeWidth=0.5;" edge="1" parent="UB4O4ha0MIYpwrMY1wqc-12">
          <mxGeometry width="50" height="50" relative="1" as="geometry">
            <mxPoint x="3" y="3" as="sourcePoint" />
            <mxPoint as="targetPoint" />
          </mxGeometry>
        </mxCell>
        <mxCell id="UB4O4ha0MIYpwrMY1wqc-15" value="" style="group;strokeWidth=0.5;" vertex="1" connectable="0" parent="1">
          <mxGeometry x="290" y="596" width="3" height="3" as="geometry" />
        </mxCell>
        <mxCell id="UB4O4ha0MIYpwrMY1wqc-16" value="" style="endArrow=none;html=1;rounded=0;jumpSize=6;strokeWidth=0.5;" edge="1" parent="UB4O4ha0MIYpwrMY1wqc-15">
          <mxGeometry width="50" height="50" relative="1" as="geometry">
            <mxPoint y="3" as="sourcePoint" />
            <mxPoint x="3" as="targetPoint" />
          </mxGeometry>
        </mxCell>
        <mxCell id="UB4O4ha0MIYpwrMY1wqc-17" value="" style="endArrow=none;html=1;rounded=0;jumpSize=6;strokeWidth=0.5;" edge="1" parent="UB4O4ha0MIYpwrMY1wqc-15">
          <mxGeometry width="50" height="50" relative="1" as="geometry">
            <mxPoint x="3" y="3" as="sourcePoint" />
            <mxPoint as="targetPoint" />
          </mxGeometry>
        </mxCell>
        <mxCell id="UB4O4ha0MIYpwrMY1wqc-18" value="" style="group;strokeWidth=0.5;" vertex="1" connectable="0" parent="1">
          <mxGeometry x="379" y="611" width="3" height="3" as="geometry" />
        </mxCell>
        <mxCell id="UB4O4ha0MIYpwrMY1wqc-19" value="" style="endArrow=none;html=1;rounded=0;jumpSize=6;strokeWidth=0.5;" edge="1" parent="UB4O4ha0MIYpwrMY1wqc-18">
          <mxGeometry width="50" height="50" relative="1" as="geometry">
            <mxPoint y="3" as="sourcePoint" />
            <mxPoint x="3" as="targetPoint" />
          </mxGeometry>
        </mxCell>
        <mxCell id="UB4O4ha0MIYpwrMY1wqc-20" value="" style="endArrow=none;html=1;rounded=0;jumpSize=6;strokeWidth=0.5;" edge="1" parent="UB4O4ha0MIYpwrMY1wqc-18">
          <mxGeometry width="50" height="50" relative="1" as="geometry">
            <mxPoint x="3" y="3" as="sourcePoint" />
            <mxPoint as="targetPoint" />
          </mxGeometry>
        </mxCell>
        <mxCell id="UB4O4ha0MIYpwrMY1wqc-21" value="" style="group;strokeWidth=0.5;" vertex="1" connectable="0" parent="1">
          <mxGeometry x="344" y="613" width="3" height="3" as="geometry" />
        </mxCell>
        <mxCell id="UB4O4ha0MIYpwrMY1wqc-22" value="" style="endArrow=none;html=1;rounded=0;jumpSize=6;strokeWidth=0.5;" edge="1" parent="UB4O4ha0MIYpwrMY1wqc-21">
          <mxGeometry width="50" height="50" relative="1" as="geometry">
            <mxPoint y="3" as="sourcePoint" />
            <mxPoint x="3" as="targetPoint" />
          </mxGeometry>
        </mxCell>
        <mxCell id="UB4O4ha0MIYpwrMY1wqc-23" value="" style="endArrow=none;html=1;rounded=0;jumpSize=6;strokeWidth=0.5;" edge="1" parent="UB4O4ha0MIYpwrMY1wqc-21">
          <mxGeometry width="50" height="50" relative="1" as="geometry">
            <mxPoint x="3" y="3" as="sourcePoint" />
            <mxPoint as="targetPoint" />
          </mxGeometry>
        </mxCell>
        <mxCell id="UB4O4ha0MIYpwrMY1wqc-24" value="" style="group;strokeWidth=0.5;" vertex="1" connectable="0" parent="1">
          <mxGeometry x="338" y="586.34" width="3" height="3" as="geometry" />
        </mxCell>
        <mxCell id="UB4O4ha0MIYpwrMY1wqc-25" value="" style="endArrow=none;html=1;rounded=0;jumpSize=6;strokeWidth=0.5;" edge="1" parent="UB4O4ha0MIYpwrMY1wqc-24">
          <mxGeometry width="50" height="50" relative="1" as="geometry">
            <mxPoint y="3" as="sourcePoint" />
            <mxPoint x="3" as="targetPoint" />
          </mxGeometry>
        </mxCell>
        <mxCell id="UB4O4ha0MIYpwrMY1wqc-26" value="" style="endArrow=none;html=1;rounded=0;jumpSize=6;strokeWidth=0.5;" edge="1" parent="UB4O4ha0MIYpwrMY1wqc-24">
          <mxGeometry width="50" height="50" relative="1" as="geometry">
            <mxPoint x="3" y="3" as="sourcePoint" />
            <mxPoint as="targetPoint" />
          </mxGeometry>
        </mxCell>
        <mxCell id="UB4O4ha0MIYpwrMY1wqc-27" value="" style="group;strokeWidth=0.5;" vertex="1" connectable="0" parent="1">
          <mxGeometry x="361" y="601.34" width="3" height="3" as="geometry" />
        </mxCell>
        <mxCell id="UB4O4ha0MIYpwrMY1wqc-28" value="" style="endArrow=none;html=1;rounded=0;jumpSize=6;strokeWidth=0.5;" edge="1" parent="UB4O4ha0MIYpwrMY1wqc-27">
          <mxGeometry width="50" height="50" relative="1" as="geometry">
            <mxPoint y="3" as="sourcePoint" />
            <mxPoint x="3" as="targetPoint" />
          </mxGeometry>
        </mxCell>
        <mxCell id="UB4O4ha0MIYpwrMY1wqc-29" value="" style="endArrow=none;html=1;rounded=0;jumpSize=6;strokeWidth=0.5;" edge="1" parent="UB4O4ha0MIYpwrMY1wqc-27">
          <mxGeometry width="50" height="50" relative="1" as="geometry">
            <mxPoint x="3" y="3" as="sourcePoint" />
            <mxPoint as="targetPoint" />
          </mxGeometry>
        </mxCell>
        <mxCell id="UB4O4ha0MIYpwrMY1wqc-30" value="" style="group;strokeWidth=0.5;" vertex="1" connectable="0" parent="1">
          <mxGeometry x="321" y="597" width="3" height="3" as="geometry" />
        </mxCell>
        <mxCell id="UB4O4ha0MIYpwrMY1wqc-31" value="" style="endArrow=none;html=1;rounded=0;jumpSize=6;strokeWidth=0.5;" edge="1" parent="UB4O4ha0MIYpwrMY1wqc-30">
          <mxGeometry width="50" height="50" relative="1" as="geometry">
            <mxPoint y="3" as="sourcePoint" />
            <mxPoint x="3" as="targetPoint" />
          </mxGeometry>
        </mxCell>
        <mxCell id="UB4O4ha0MIYpwrMY1wqc-32" value="" style="endArrow=none;html=1;rounded=0;jumpSize=6;strokeWidth=0.5;" edge="1" parent="UB4O4ha0MIYpwrMY1wqc-30">
          <mxGeometry width="50" height="50" relative="1" as="geometry">
            <mxPoint x="3" y="3" as="sourcePoint" />
            <mxPoint as="targetPoint" />
          </mxGeometry>
        </mxCell>
        <mxCell id="UB4O4ha0MIYpwrMY1wqc-33" value="" style="group;strokeWidth=0.5;" vertex="1" connectable="0" parent="1">
          <mxGeometry x="329" y="603" width="3" height="3" as="geometry" />
        </mxCell>
        <mxCell id="UB4O4ha0MIYpwrMY1wqc-34" value="" style="endArrow=none;html=1;rounded=0;jumpSize=6;strokeWidth=0.5;" edge="1" parent="UB4O4ha0MIYpwrMY1wqc-33">
          <mxGeometry width="50" height="50" relative="1" as="geometry">
            <mxPoint y="3" as="sourcePoint" />
            <mxPoint x="3" as="targetPoint" />
          </mxGeometry>
        </mxCell>
        <mxCell id="UB4O4ha0MIYpwrMY1wqc-35" value="" style="endArrow=none;html=1;rounded=0;jumpSize=6;strokeWidth=0.5;" edge="1" parent="UB4O4ha0MIYpwrMY1wqc-33">
          <mxGeometry width="50" height="50" relative="1" as="geometry">
            <mxPoint x="3" y="3" as="sourcePoint" />
            <mxPoint as="targetPoint" />
          </mxGeometry>
        </mxCell>
        <mxCell id="UB4O4ha0MIYpwrMY1wqc-36" value="" style="group;strokeWidth=0.5;" vertex="1" connectable="0" parent="1">
          <mxGeometry x="354" y="606" width="3" height="3" as="geometry" />
        </mxCell>
        <mxCell id="UB4O4ha0MIYpwrMY1wqc-37" value="" style="endArrow=none;html=1;rounded=0;jumpSize=6;strokeWidth=0.5;" edge="1" parent="UB4O4ha0MIYpwrMY1wqc-36">
          <mxGeometry width="50" height="50" relative="1" as="geometry">
            <mxPoint y="3" as="sourcePoint" />
            <mxPoint x="3" as="targetPoint" />
          </mxGeometry>
        </mxCell>
        <mxCell id="UB4O4ha0MIYpwrMY1wqc-38" value="" style="endArrow=none;html=1;rounded=0;jumpSize=6;strokeWidth=0.5;" edge="1" parent="UB4O4ha0MIYpwrMY1wqc-36">
          <mxGeometry width="50" height="50" relative="1" as="geometry">
            <mxPoint x="3" y="3" as="sourcePoint" />
            <mxPoint as="targetPoint" />
          </mxGeometry>
        </mxCell>
        <mxCell id="UB4O4ha0MIYpwrMY1wqc-39" value="" style="group;strokeWidth=0.5;" vertex="1" connectable="0" parent="1">
          <mxGeometry x="355" y="626" width="3" height="3" as="geometry" />
        </mxCell>
        <mxCell id="UB4O4ha0MIYpwrMY1wqc-40" value="" style="endArrow=none;html=1;rounded=0;jumpSize=6;strokeWidth=0.5;" edge="1" parent="UB4O4ha0MIYpwrMY1wqc-39">
          <mxGeometry width="50" height="50" relative="1" as="geometry">
            <mxPoint y="3" as="sourcePoint" />
            <mxPoint x="3" as="targetPoint" />
          </mxGeometry>
        </mxCell>
        <mxCell id="UB4O4ha0MIYpwrMY1wqc-41" value="" style="endArrow=none;html=1;rounded=0;jumpSize=6;strokeWidth=0.5;" edge="1" parent="UB4O4ha0MIYpwrMY1wqc-39">
          <mxGeometry width="50" height="50" relative="1" as="geometry">
            <mxPoint x="3" y="3" as="sourcePoint" />
            <mxPoint as="targetPoint" />
          </mxGeometry>
        </mxCell>
        <mxCell id="UB4O4ha0MIYpwrMY1wqc-42" value="" style="group;strokeWidth=0.5;" vertex="1" connectable="0" parent="1">
          <mxGeometry x="304" y="620" width="3" height="3" as="geometry" />
        </mxCell>
        <mxCell id="UB4O4ha0MIYpwrMY1wqc-43" value="" style="endArrow=none;html=1;rounded=0;jumpSize=6;strokeWidth=0.5;" edge="1" parent="UB4O4ha0MIYpwrMY1wqc-42">
          <mxGeometry width="50" height="50" relative="1" as="geometry">
            <mxPoint y="3" as="sourcePoint" />
            <mxPoint x="3" as="targetPoint" />
          </mxGeometry>
        </mxCell>
        <mxCell id="UB4O4ha0MIYpwrMY1wqc-44" value="" style="endArrow=none;html=1;rounded=0;jumpSize=6;strokeWidth=0.5;" edge="1" parent="UB4O4ha0MIYpwrMY1wqc-42">
          <mxGeometry width="50" height="50" relative="1" as="geometry">
            <mxPoint x="3" y="3" as="sourcePoint" />
            <mxPoint as="targetPoint" />
          </mxGeometry>
        </mxCell>
        <mxCell id="UB4O4ha0MIYpwrMY1wqc-45" value="" style="group;strokeWidth=0.5;" vertex="1" connectable="0" parent="1">
          <mxGeometry x="341" y="599" width="3" height="3" as="geometry" />
        </mxCell>
        <mxCell id="UB4O4ha0MIYpwrMY1wqc-46" value="" style="endArrow=none;html=1;rounded=0;jumpSize=6;strokeWidth=0.5;" edge="1" parent="UB4O4ha0MIYpwrMY1wqc-45">
          <mxGeometry width="50" height="50" relative="1" as="geometry">
            <mxPoint y="3" as="sourcePoint" />
            <mxPoint x="3" as="targetPoint" />
          </mxGeometry>
        </mxCell>
        <mxCell id="UB4O4ha0MIYpwrMY1wqc-47" value="" style="endArrow=none;html=1;rounded=0;jumpSize=6;strokeWidth=0.5;" edge="1" parent="UB4O4ha0MIYpwrMY1wqc-45">
          <mxGeometry width="50" height="50" relative="1" as="geometry">
            <mxPoint x="3" y="3" as="sourcePoint" />
            <mxPoint as="targetPoint" />
          </mxGeometry>
        </mxCell>
        <mxCell id="UB4O4ha0MIYpwrMY1wqc-48" value="" style="group;strokeWidth=0.5;" vertex="1" connectable="0" parent="1">
          <mxGeometry x="314" y="587" width="3" height="3" as="geometry" />
        </mxCell>
        <mxCell id="UB4O4ha0MIYpwrMY1wqc-49" value="" style="endArrow=none;html=1;rounded=0;jumpSize=6;strokeWidth=0.5;" edge="1" parent="UB4O4ha0MIYpwrMY1wqc-48">
          <mxGeometry width="50" height="50" relative="1" as="geometry">
            <mxPoint y="3" as="sourcePoint" />
            <mxPoint x="3" as="targetPoint" />
          </mxGeometry>
        </mxCell>
        <mxCell id="UB4O4ha0MIYpwrMY1wqc-50" value="" style="endArrow=none;html=1;rounded=0;jumpSize=6;strokeWidth=0.5;" edge="1" parent="UB4O4ha0MIYpwrMY1wqc-48">
          <mxGeometry width="50" height="50" relative="1" as="geometry">
            <mxPoint x="3" y="3" as="sourcePoint" />
            <mxPoint as="targetPoint" />
          </mxGeometry>
        </mxCell>
        <mxCell id="UB4O4ha0MIYpwrMY1wqc-51" value="" style="group;strokeWidth=0.5;" vertex="1" connectable="0" parent="1">
          <mxGeometry x="322" y="616" width="3" height="3" as="geometry" />
        </mxCell>
        <mxCell id="UB4O4ha0MIYpwrMY1wqc-52" value="" style="endArrow=none;html=1;rounded=0;jumpSize=6;strokeWidth=0.5;" edge="1" parent="UB4O4ha0MIYpwrMY1wqc-51">
          <mxGeometry width="50" height="50" relative="1" as="geometry">
            <mxPoint y="3" as="sourcePoint" />
            <mxPoint x="3" as="targetPoint" />
          </mxGeometry>
        </mxCell>
        <mxCell id="UB4O4ha0MIYpwrMY1wqc-53" value="" style="endArrow=none;html=1;rounded=0;jumpSize=6;strokeWidth=0.5;" edge="1" parent="UB4O4ha0MIYpwrMY1wqc-51">
          <mxGeometry width="50" height="50" relative="1" as="geometry">
            <mxPoint x="3" y="3" as="sourcePoint" />
            <mxPoint as="targetPoint" />
          </mxGeometry>
        </mxCell>
        <mxCell id="UB4O4ha0MIYpwrMY1wqc-54" value="" style="group;strokeWidth=0.5;" vertex="1" connectable="0" parent="1">
          <mxGeometry x="309" y="606" width="3" height="3" as="geometry" />
        </mxCell>
        <mxCell id="UB4O4ha0MIYpwrMY1wqc-55" value="" style="endArrow=none;html=1;rounded=0;jumpSize=6;strokeWidth=0.5;" edge="1" parent="UB4O4ha0MIYpwrMY1wqc-54">
          <mxGeometry width="50" height="50" relative="1" as="geometry">
            <mxPoint y="3" as="sourcePoint" />
            <mxPoint x="3" as="targetPoint" />
          </mxGeometry>
        </mxCell>
        <mxCell id="UB4O4ha0MIYpwrMY1wqc-56" value="" style="endArrow=none;html=1;rounded=0;jumpSize=6;strokeWidth=0.5;" edge="1" parent="UB4O4ha0MIYpwrMY1wqc-54">
          <mxGeometry width="50" height="50" relative="1" as="geometry">
            <mxPoint x="3" y="3" as="sourcePoint" />
            <mxPoint as="targetPoint" />
          </mxGeometry>
        </mxCell>
        <mxCell id="UB4O4ha0MIYpwrMY1wqc-57" value="" style="endArrow=none;dashed=1;html=1;rounded=0;labelBackgroundColor=default;strokeColor=default;strokeWidth=0.5;fontFamily=Helvetica;fontSize=11;fontColor=default;startSize=5;endSize=1;shape=connector;jumpSize=8;dashPattern=1 4;" edge="1" parent="1">
          <mxGeometry width="50" height="50" relative="1" as="geometry">
            <mxPoint x="281" y="637.5" as="sourcePoint" />
            <mxPoint x="342" y="637.5" as="targetPoint" />
          </mxGeometry>
        </mxCell>
        <mxCell id="UB4O4ha0MIYpwrMY1wqc-58" value="$$2$$" style="text;html=1;strokeColor=none;fillColor=none;align=center;verticalAlign=middle;whiteSpace=wrap;rounded=0;" vertex="1" parent="1">
          <mxGeometry x="263" y="630.5" width="20" height="14" as="geometry" />
        </mxCell>
        <mxCell id="UB4O4ha0MIYpwrMY1wqc-59" value="" style="endArrow=none;dashed=1;html=1;rounded=0;labelBackgroundColor=default;strokeColor=default;strokeWidth=0.5;fontFamily=Helvetica;fontSize=11;fontColor=default;startSize=5;endSize=1;shape=connector;jumpSize=8;dashPattern=1 4;" edge="1" parent="1">
          <mxGeometry width="50" height="50" relative="1" as="geometry">
            <mxPoint x="291" y="655" as="sourcePoint" />
            <mxPoint x="291" y="597" as="targetPoint" />
          </mxGeometry>
        </mxCell>
        <mxCell id="UB4O4ha0MIYpwrMY1wqc-60" value="$$1$$" style="text;html=1;strokeColor=none;fillColor=none;align=center;verticalAlign=middle;whiteSpace=wrap;rounded=0;" vertex="1" parent="1">
          <mxGeometry x="281" y="656" width="20" height="14" as="geometry" />
        </mxCell>
        <mxCell id="UB4O4ha0MIYpwrMY1wqc-61" value="" style="endArrow=none;dashed=1;html=1;rounded=0;labelBackgroundColor=default;strokeColor=default;strokeWidth=0.5;fontFamily=Helvetica;fontSize=11;fontColor=default;startSize=5;endSize=1;shape=connector;jumpSize=8;dashPattern=1 4;" edge="1" parent="1">
          <mxGeometry width="50" height="50" relative="1" as="geometry">
            <mxPoint x="380.72" y="655" as="sourcePoint" />
            <mxPoint x="380.72" y="612" as="targetPoint" />
          </mxGeometry>
        </mxCell>
        <mxCell id="UB4O4ha0MIYpwrMY1wqc-62" value="$$99$$" style="text;html=1;strokeColor=none;fillColor=none;align=center;verticalAlign=middle;whiteSpace=wrap;rounded=0;" vertex="1" parent="1">
          <mxGeometry x="369" y="656" width="20" height="14" as="geometry" />
        </mxCell>
        <mxCell id="UB4O4ha0MIYpwrMY1wqc-63" value="" style="html=1;shadow=0;dashed=0;align=center;verticalAlign=middle;shape=mxgraph.arrows2.arrow;dy=0.6;dx=20;notch=0;spacing=2;rotation=0;perimeterSpacing=1;fillColor=#f8cecc;strokeColor=#b85450;" vertex="1" parent="1">
          <mxGeometry x="389" y="404" width="51" height="10" as="geometry" />
        </mxCell>
        <mxCell id="UB4O4ha0MIYpwrMY1wqc-64" value="$$\{x:[1,99],y:[2,90]\}$$" style="text;html=1;strokeColor=none;fillColor=none;align=center;verticalAlign=middle;whiteSpace=wrap;rounded=0;" vertex="1" parent="1">
          <mxGeometry x="461" y="599" width="130" height="10" as="geometry" />
        </mxCell>
        <mxCell id="vWA_PZ6vHcwhdd8Yn6Y0-2" value="" style="html=1;shadow=0;dashed=0;align=center;verticalAlign=middle;shape=mxgraph.arrows2.arrow;dy=0.6;dx=20;notch=0;spacing=2;rotation=-180;perimeterSpacing=1;fillColor=#dae8fc;strokeColor=#6c8ebf;" vertex="1" parent="1">
          <mxGeometry x="398" y="601" width="50" height="10" as="geometry" />
        </mxCell>
      </root>
    </mxGraphModel>
  </diagram>
</mxfile>
